<svg width="97" height="42" viewBox="0 0 97 42" fill="none" xmlns="http://www.w3.org/2000/svg">
<g clip-path="url(#clip0_15_28)">
<path d="M53.01 6.22006C53.01 5.58006 52.85 5.41006 52.29 5.41006C51.73 5.41006 51.57 5.57006 51.57 6.22006V12.2601C51.57 12.9001 51.73 13.0701 52.29 13.0701C52.85 13.0701 53.01 12.9101 53.01 12.2601V6.22006ZM55.19 14.5101C54.55 15.1501 53.66 15.1501 52.29 15.1501C50.92 15.1501 50.03 15.1501 49.39 14.5101C48.83 13.8701 48.75 13.0601 48.75 11.9301V6.62006C48.75 5.49006 48.75 4.69006 49.39 4.04006C49.95 3.40006 50.92 3.31006 52.29 3.31006C53.66 3.31006 54.55 3.31006 55.19 4.04006C55.75 4.68006 55.83 5.41006 55.83 6.62006V11.9301C55.83 13.0601 55.83 13.8601 55.27 14.5101" fill="#1E72B8"/>
<path d="M60.0199 5.56998V9.10998H60.6599C61.2999 9.10998 61.5499 8.94998 61.5499 8.29998V6.36998C61.5499 5.72998 61.3099 5.55998 60.6599 5.55998H60.0199V5.56998ZM60.4999 11.05H60.0199V15H57.3599V3.47998H60.1799C63.1599 3.47998 64.2899 3.87998 64.2899 6.45998V7.74998C64.2899 9.11998 63.7299 9.75998 62.4399 9.99998C63.6499 10.16 64.2099 10.81 64.2099 12.01V15.07H61.5499V12.17C61.5499 11.36 61.3099 11.12 60.4999 11.12" fill="#1E72B8"/>
<path d="M65.9002 10.49L64.9302 11.13V9.67998L65.9002 9.03998V3.47998H68.5502V7.74998L70.0002 6.77998V8.22998L68.5502 9.19998V12.98H71.0502V15H65.9002V10.49Z" fill="#1E72B8"/>
<path d="M73.06 11.29L70.73 3.47998H73.47L74.51 8.71998L75.56 3.47998H78.14L75.8 11.29V15H73.06V11.29Z" fill="#1E72B8"/>
<path d="M51.2401 26.2701C51.2401 26.9201 51.48 27.0801 52.04 27.0801C52.6 27.0801 52.85 26.9201 52.85 26.1901V25.3801C52.85 24.9801 52.85 24.7401 52.61 24.4901C52.21 24.0101 51.5601 24.0101 50.7601 23.8501C49.2301 23.3701 48.8301 22.7201 48.8301 21.1901V20.1401C48.8301 18.2101 49.4701 17.3201 51.4901 17.3201H52.3C53.51 17.3201 54.31 17.4801 54.8 17.9601C55.28 18.4401 55.2801 19.0101 55.2801 19.9701V20.8601H52.86V20.1301C52.86 19.4101 52.7001 19.2401 52.1401 19.2401C51.5801 19.2401 51.41 19.4001 51.41 20.0501V20.7701C51.41 21.8201 52.1401 21.7401 53.5001 22.1401C55.0301 22.5401 55.4301 23.1901 55.4301 24.8001V26.3301C55.4301 28.2601 54.5401 29.0701 52.5301 29.0701H51.8101C49.5501 29.0701 48.8301 28.4301 48.8301 26.3301V25.0401H51.3301V26.1701L51.2501 26.2501L51.2401 26.2701Z" fill="#1E72B8"/>
<path d="M60.9799 20.39C60.9799 19.75 60.8199 19.58 60.1799 19.58H59.5399V23.69H60.1799C60.8199 23.69 60.9799 23.53 60.9799 22.88V20.38V20.39ZM59.6199 29.01H56.96V17.5H59.6199C62.5999 17.5 63.7299 17.9 63.7299 20.48V22.82C63.7299 25.15 62.7599 25.8 60.1099 25.8H59.6299V29.1V29.02L59.6199 29.01Z" fill="#1E72B8"/>
<path d="M68.96 20.23C68.96 19.58 68.7999 19.42 68.2399 19.42C67.6799 19.42 67.52 19.58 67.52 20.23V26.27C67.52 26.91 67.6799 27.08 68.2399 27.08C68.7999 27.08 68.96 26.92 68.96 26.27V20.23ZM71.1299 28.44C70.4899 29.08 69.5999 29.08 68.2299 29.08C66.8599 29.08 65.97 29.08 65.33 28.44C64.77 27.8 64.6899 26.99 64.6899 25.86V20.55C64.6899 19.42 64.69 18.62 65.33 17.97C65.89 17.33 66.8599 17.24 68.2299 17.24C69.5999 17.24 70.4899 17.24 71.1299 17.97C71.6899 18.61 71.77 19.34 71.77 20.55V25.86C71.77 26.99 71.77 27.79 71.21 28.44" fill="#1E72B8"/>
<path d="M75.9601 19.51V23.05H76.6C77.24 23.05 77.4901 22.89 77.4901 22.24V20.31C77.4901 19.67 77.25 19.5 76.6 19.5H75.9601V19.51ZM76.4501 25.06H75.97V29.01H73.3101V17.49H76.1301C79.1101 17.49 80.2401 17.89 80.2401 20.47V21.76C80.2401 23.13 79.6801 23.77 78.3901 24.01C79.6001 24.17 80.16 24.82 80.16 26.02V29.08H77.5001V26.18C77.5001 25.37 77.2601 25.13 76.4501 25.13" fill="#1E72B8"/>
<path d="M82.8101 19.59H81.04V17.49H87.3201V19.59H85.4601V29.01H82.8101V19.59Z" fill="#1E72B8"/>
<path d="M90.8602 17.49V26.27C90.8602 26.91 91.0202 27.07 91.5802 27.07C92.1402 27.07 92.3002 26.91 92.3002 26.27V17.49H94.88V25.3C94.88 26.67 94.88 27.64 94.24 28.36C93.68 29 92.8702 29.17 91.5002 29.17C90.1302 29.17 89.2502 29.01 88.7602 28.36C88.2002 27.64 88.2002 26.67 88.2002 25.3V17.49H90.8602Z" fill="#1E72B8"/>
<path d="M48.9102 31.8301H52.3702V33.1101H50.1902V35.3701H52.2902V36.5001H50.1902V39.8801H48.9102V31.8301Z" fill="#93C021"/>
<path d="M54.4599 31.8301H55.7499V37.8701C55.7499 38.4301 55.9898 38.7601 56.4698 38.7601C56.9498 38.7601 57.1899 38.4401 57.1899 37.8701V31.8301H58.4799V37.7901C58.4799 39.3201 57.6798 39.9601 56.4698 39.9601C55.2598 39.9601 54.3799 39.2301 54.3799 37.7901V31.8301H54.4599Z" fill="#93C021"/>
<path d="M60.8999 39.8801V31.8301H62.4299L63.9599 36.3401H64.0399V31.8301H65.1699V39.8801H64.1199L62.1099 34.5601H62.0299V39.8801H60.8999Z" fill="#93C021"/>
<path d="M68.7897 38.6701H69.3497C69.9897 38.6701 70.3198 38.2701 70.3198 37.5401V34.2401C70.3198 33.5201 69.9997 33.1101 69.3497 33.1101H68.7897V38.6701ZM67.5098 31.8301H69.2798C70.6498 31.8301 71.5298 32.5601 71.5298 34.2501V37.4701C71.5298 39.1601 70.6398 39.8901 69.2798 39.8901H67.5098V31.8401V31.8301Z" fill="#93C021"/>
<path d="M75.0001 37.6999H76.29L75.6501 34.0799L75.0101 37.6999H75.0001ZM76.4501 38.8299H74.7601L74.5201 39.9599H73.3101L74.8401 31.9099H76.4501L77.9001 39.9599H76.61L76.4501 38.8299Z" fill="#93C021"/>
<path d="M82.56 34.8099V33.8399C82.56 33.3599 82.4 32.8699 81.83 32.8699C81.26 32.8699 81.03 33.2699 81.03 34.1599V37.8599C81.03 38.4199 81.35 38.6699 81.75 38.6699C82.31 38.6699 82.56 38.2699 82.56 37.3799C82.56 36.4899 82.56 36.6499 82.48 36.3299H83.69C83.77 36.6499 83.85 37.0599 83.85 37.5399C83.85 38.9099 83.21 39.9599 81.84 39.9599C80.47 39.9599 79.75 39.2299 79.75 37.7799V33.8399C79.75 32.3099 80.64 31.6699 81.84 31.6699C83.04 31.6699 83.85 32.4799 83.85 33.8399C83.85 35.1999 83.85 34.4799 83.69 34.7299H82.56V34.8099Z" fill="#93C021"/>
<path d="M86.1099 36.4999H87.3199C87.3199 36.8199 87.2399 37.2299 87.2399 37.5499C87.2399 38.4399 87.4799 38.8399 88.0499 38.8399C88.6199 38.8399 88.77 38.5999 88.77 38.0299V31.9099H90.0599V37.8699C90.0599 39.3999 89.1699 40.0399 87.9699 40.0399C86.7699 40.0399 85.96 38.9899 85.96 37.6199C85.96 36.2499 85.9599 36.7299 86.1199 36.4099" fill="#93C021"/>
<path d="M93.52 37.6999H94.81L94.17 34.0799L93.53 37.6999H93.52ZM94.97 38.8299H93.28L93.04 39.9599H91.8301L93.36 31.9099H94.97L96.42 39.9599H95.13L94.97 38.8299Z" fill="#93C021"/>
<path d="M10.4199 17.8099C10.4199 17.8099 8.07999 13.9499 10.02 11.3699C11.47 9.5199 16.95 5.6499 16.95 5.6499V11.4499C16.95 11.4499 17.8399 11.6099 19.9299 12.7399C22.0999 13.7899 22.3499 14.2699 22.3499 14.2699C22.3499 14.2699 13.49 13.4699 12.44 14.8299C11.39 16.1999 12.0399 19.1799 12.0399 19.1799L10.3499 17.7299L10.4299 17.8099H10.4199Z" fill="#F19106"/>
<path d="M14.3599 5.73993C14.3599 5.73993 16.2099 3.56993 19.6699 1.95993C23.1299 0.26993 27.2399 0.82993 27.2399 0.82993C27.2399 0.82993 22.8899 2.51993 20.9599 4.68993C19.0299 6.85993 18.1399 8.87993 18.1399 8.87993C18.1399 8.87993 17.2499 4.76993 19.0299 3.47993C19.5099 3.15993 14.3599 5.72993 14.3599 5.72993" fill="#E4087E"/>
<path d="M24.0202 12.4999C24.0202 12.4999 32.3102 14.3499 36.1002 17.2499C39.8802 20.1499 43.9102 26.8299 43.9102 26.8299C43.9102 26.8299 44.7202 22.2399 43.1002 18.3799C40.6802 12.4199 32.7102 10.8899 32.7102 10.8899C32.7102 10.8899 26.5102 13.1399 23.9302 12.4999" fill="#1E72B8"/>
<path d="M23.54 13.95C23.54 13.95 26.52 16.69 28.05 19.43C29.5 22.17 29.9001 25.87 29.9001 25.87L30.79 23.05C30.79 23.05 33.0501 26.27 33.4501 28.69C33.8501 31.11 33.4501 37.0699 31.1901 39.7999C28.8601 42.6199 35.05 37.0599 35.54 35.6899C36.02 34.2399 36.91 31.4199 36.91 31.4199C36.91 31.4199 37.8001 35.21 37.6301 36.09L37.47 36.9C37.47 36.9 39.3201 33.8399 39.5601 31.4199C39.8001 28.9999 39.72 27.47 39.72 27.47C39.72 27.47 41.0901 29.1599 41.0101 30.2099C40.9301 31.2599 41.9801 29.08 40.5301 25.3C39.0801 21.52 34.0101 15.56 23.7801 13.95" fill="#39A7DF"/>
<path d="M20.0002 15.4001C20.0002 15.4001 22.9002 17.9001 22.5002 22.2501C22.0202 26.6001 21.1302 28.5301 21.1302 28.5301C21.1302 28.5301 22.5803 27.9701 23.7103 26.8401C24.5103 26.0301 25.0002 25.0701 25.0002 25.0701C25.0002 25.0701 26.0502 31.6701 20.7302 34.8101C15.4102 37.9501 7.28027 36.6601 7.28027 36.6601C7.28027 36.6601 12.3502 40.1201 16.9402 40.0401C24.5902 39.8801 26.8403 36.6601 26.8403 36.6601C26.8403 36.6601 24.8302 40.7701 21.9302 41.1701C19.0302 41.6501 25.8003 41.3301 28.7003 38.5101C33.5303 33.6801 30.8702 26.3501 30.8702 26.3501L28.2902 28.6001C28.2902 28.6001 29.2603 18.4501 20.0803 15.3101" fill="#93C021"/>
<path d="M0.910156 29.6501C0.910156 29.6501 4.0502 33.2701 6.9502 34.3201C11.1402 35.8501 14.6002 35.4501 18.1402 34.3201C23.1302 32.6301 23.2902 29.3301 23.2902 29.3301L18.3802 32.1501L19.6702 30.1401C19.6702 30.1401 13.2302 32.6401 9.2002 32.3101C5.1702 31.9801 0.910156 29.7301 0.910156 29.7301" fill="#E84E1C"/>
<path d="M24.67 7.02007V7.34007C24.67 7.90007 25.15 8.39007 25.72 8.39007C26.29 8.39007 26.7701 7.91007 26.7701 7.34007C26.7701 6.77007 26.4501 6.46007 25.9601 6.37007C26.2801 6.21007 26.6001 6.05007 26.9301 5.97007C27.4101 6.29007 27.73 6.86007 27.73 7.50007C27.73 8.14007 27.1701 9.03007 26.4401 9.27007H25.23C24.51 9.03007 23.94 8.46007 23.86 7.66007C24.1 7.42007 24.4201 7.18007 24.7501 7.01007M41.2601 10.6501C38.2001 6.22007 29.91 6.70007 29.91 6.70007C29.91 6.70007 29.5101 7.59007 28.3801 8.47007C28.5401 8.15007 28.54 7.83007 28.54 7.42007C28.54 6.69007 28.3001 6.05007 27.8101 5.57007C28.6201 5.33007 29.4201 5.25007 30.3901 5.17007C36.9901 5.01007 40.6201 7.75007 40.6201 7.75007C40.6201 7.75007 39.8101 6.30007 39.2501 5.66007C35.3901 1.31007 30.07 1.07007 25.8 2.44007C21.61 3.81007 18.3101 10.7301 18.3101 10.7301H20.8901C20.8901 10.7301 21.45 9.68007 22.66 8.39007C22.82 8.79007 23.0601 9.20007 23.3801 9.52007C22.6601 10.0001 22.0901 10.8901 22.0901 10.8901C23.3801 11.4501 27.2401 11.3701 27.2401 11.3701C27.2401 11.3701 30.06 9.20007 34.41 9.76007C38.76 10.3201 43.1901 14.7501 43.1901 14.7501C43.1901 14.7501 43.19 13.5401 41.1 10.6401" fill="#642681"/>
</g>
<defs>
<clipPath id="clip0_15_28">
<rect width="97" height="42" fill="white"/>
</clipPath>
</defs>
</svg>
