<svg width="109" height="42" viewBox="0 0 109 42" fill="none" xmlns="http://www.w3.org/2000/svg">
<g clip-path="url(#clip0_14_2)">
<path d="M44.6501 10.9899V14.4799H43.3901V5.15991H46.1401C46.7301 5.15991 47.2401 5.22991 47.6801 5.35991C48.1201 5.49991 48.4801 5.68991 48.7601 5.93991C49.0501 6.18991 49.2601 6.49991 49.4001 6.84991C49.5401 7.19991 49.6101 7.59991 49.6101 8.03991C49.6101 8.47991 49.5301 8.86991 49.3801 9.22991C49.2301 9.58991 49.0001 9.89991 48.7101 10.1599C48.4201 10.4199 48.0501 10.6199 47.6201 10.7699C47.1901 10.9199 46.6901 10.9899 46.1301 10.9899H44.6301H44.6501ZM44.6501 9.98991H46.1501C46.5101 9.98991 46.8301 9.93991 47.1001 9.84991C47.3701 9.75991 47.6101 9.61991 47.7901 9.44991C47.9701 9.27991 48.1201 9.06991 48.2101 8.83991C48.3101 8.59991 48.3501 8.33991 48.3501 8.04991C48.3501 7.45991 48.1701 6.98991 47.8001 6.65991C47.4401 6.32991 46.8801 6.15991 46.1401 6.15991H44.6401V9.99991L44.6501 9.98991Z" fill="#000101"/>
<path d="M52.5198 10.5899V14.4799H51.2598V5.15991H53.8998C54.4898 5.15991 54.9998 5.21991 55.4298 5.33991C55.8598 5.45991 56.2098 5.62991 56.4898 5.85991C56.7698 6.08991 56.9798 6.35991 57.1098 6.67991C57.2398 6.99991 57.3098 7.35991 57.3098 7.74991C57.3098 8.07991 57.2598 8.38991 57.1498 8.66991C57.0498 8.95991 56.8998 9.20991 56.6998 9.43991C56.4998 9.66991 56.2598 9.85991 55.9798 10.0199C55.6998 10.1799 55.3698 10.2999 55.0098 10.3899C55.1698 10.4799 55.2998 10.6099 55.4298 10.7899L58.1498 14.4899H57.0298C56.7998 14.4899 56.6298 14.3999 56.5198 14.2199L54.0998 10.8899C54.0298 10.7899 53.9498 10.7099 53.8598 10.6699C53.7698 10.6199 53.6398 10.5999 53.4698 10.5999H52.5098L52.5198 10.5899ZM52.5198 9.66991H53.8398C54.2098 9.66991 54.5298 9.62991 54.8098 9.53991C55.0898 9.44991 55.3198 9.32991 55.5098 9.15991C55.6998 8.99991 55.8398 8.79991 55.9398 8.57991C56.0298 8.34991 56.0798 8.09991 56.0798 7.82991C56.0798 7.26991 55.8998 6.85991 55.5298 6.57991C55.1598 6.29991 54.6198 6.15991 53.8898 6.15991H52.5098V9.67991L52.5198 9.66991Z" fill="#000101"/>
<path d="M67.7999 9.82005C67.7999 10.52 67.6899 11.16 67.4699 11.74C67.2499 12.32 66.9399 12.82 66.5299 13.25C66.1299 13.67 65.6399 14 65.0799 14.23C64.5199 14.46 63.8899 14.58 63.1999 14.58C62.5099 14.58 61.8899 14.46 61.3299 14.23C60.7599 14 60.2799 13.67 59.8799 13.25C59.4799 12.83 59.1599 12.33 58.9399 11.74C58.7199 11.16 58.6099 10.52 58.6099 9.82005C58.6099 9.12005 58.7199 8.48005 58.9399 7.90005C59.1599 7.32005 59.4699 6.81005 59.8799 6.39005C60.2799 5.97005 60.7699 5.64005 61.3299 5.40005C61.8899 5.17005 62.5199 5.05005 63.1999 5.05005C63.8799 5.05005 64.5099 5.17005 65.0799 5.40005C65.6499 5.64005 66.1299 5.96005 66.5299 6.39005C66.9299 6.81005 67.2499 7.32005 67.4699 7.90005C67.6899 8.48005 67.7999 9.12005 67.7999 9.82005ZM66.4999 9.82005C66.4999 9.25005 66.4199 8.73005 66.2699 8.28005C66.1099 7.83005 65.8899 7.44005 65.6099 7.13005C65.3199 6.82005 64.9799 6.57005 64.5699 6.40005C64.1599 6.23005 63.7099 6.15005 63.2099 6.15005C62.7099 6.15005 62.2599 6.23005 61.8499 6.40005C61.4399 6.57005 61.0899 6.81005 60.8099 7.13005C60.5199 7.45005 60.2999 7.83005 60.1399 8.28005C59.9799 8.74005 59.9099 9.25005 59.9099 9.82005C59.9099 10.39 59.9899 10.91 60.1399 11.36C60.2899 11.81 60.5199 12.2 60.8099 12.51C61.0999 12.83 61.4499 13.07 61.8499 13.23C62.2599 13.4 62.7099 13.48 63.2099 13.48C63.7099 13.48 64.1699 13.4 64.5699 13.23C64.9799 13.06 65.3299 12.82 65.6099 12.51C65.8999 12.2 66.1199 11.81 66.2699 11.36C66.4299 10.91 66.4999 10.39 66.4999 9.82005Z" fill="#000101"/>
<path d="M73.5999 13.5601C73.8499 13.5601 74.0799 13.5501 74.2899 13.5301C74.4999 13.5101 74.6999 13.4701 74.8799 13.4201C75.0699 13.3701 75.2399 13.3101 75.4099 13.2501C75.5699 13.1801 75.7399 13.1101 75.9099 13.0201V10.9601H74.4699C74.3899 10.9601 74.3199 10.9401 74.2699 10.8901C74.2199 10.8401 74.1899 10.7901 74.1899 10.7201V10.0001H77.0499V13.5801C76.8199 13.7501 76.5699 13.9001 76.3199 14.0201C76.0699 14.1401 75.7899 14.2501 75.5099 14.3401C75.2199 14.4201 74.9099 14.4901 74.5799 14.5301C74.2499 14.5701 73.8899 14.5901 73.5099 14.5901C72.8299 14.5901 72.2099 14.4701 71.6499 14.2401C71.0899 14.0101 70.5999 13.6801 70.1899 13.2601C69.7799 12.8401 69.4699 12.3401 69.2399 11.7501C69.0099 11.1701 68.8999 10.5201 68.8999 9.82006C68.8999 9.12006 69.0099 8.46006 69.2399 7.88006C69.4599 7.29006 69.7799 6.79006 70.1899 6.37006C70.5999 5.95006 71.1099 5.63006 71.6899 5.40006C72.2799 5.17006 72.9399 5.06006 73.6599 5.06006C74.0299 5.06006 74.3699 5.09006 74.6899 5.14006C75.0099 5.19006 75.2999 5.27006 75.5699 5.37006C75.8399 5.47006 76.0899 5.60006 76.3199 5.74006C76.5499 5.89006 76.7599 6.05006 76.9599 6.23006L76.5999 6.80006C76.5299 6.92006 76.4299 6.97006 76.3099 6.97006C76.2399 6.97006 76.1599 6.95006 76.0799 6.90006C75.9699 6.84006 75.8499 6.77006 75.7099 6.68006C75.5799 6.59006 75.4099 6.51006 75.2199 6.43006C75.0299 6.35006 74.7999 6.28006 74.5399 6.23006C74.2799 6.17006 73.9699 6.14006 73.5999 6.14006C73.0799 6.14006 72.5999 6.23006 72.1799 6.40006C71.7499 6.57006 71.3899 6.82006 71.0899 7.13006C70.7899 7.45006 70.5599 7.83006 70.3999 8.29006C70.2399 8.74006 70.1599 9.25006 70.1599 9.81006C70.1599 10.3701 70.2399 10.9201 70.4099 11.3901C70.5799 11.8501 70.8099 12.2401 71.1199 12.5601C71.4199 12.8801 71.7899 13.1301 72.1999 13.2901C72.6199 13.4601 73.0799 13.5401 73.5799 13.5401" fill="#000101"/>
<path d="M80.3 10.5899V14.4799H79.04V5.15991H81.68C82.27 5.15991 82.78 5.21991 83.21 5.33991C83.64 5.45991 83.99 5.62991 84.27 5.85991C84.55 6.08991 84.76 6.35991 84.89 6.67991C85.02 6.99991 85.09 7.35991 85.09 7.74991C85.09 8.07991 85.04 8.38991 84.93 8.66991C84.83 8.95991 84.68 9.20991 84.48 9.43991C84.28 9.66991 84.04 9.85991 83.76 10.0199C83.48 10.1799 83.15 10.2999 82.79 10.3899C82.95 10.4799 83.08 10.6099 83.21 10.7899L85.93 14.4899H84.81C84.58 14.4899 84.41 14.3999 84.3 14.2199L81.88 10.8899C81.81 10.7899 81.73 10.7099 81.64 10.6699C81.55 10.6199 81.42 10.5999 81.25 10.5999H80.29L80.3 10.5899ZM80.3 9.66991H81.62C81.99 9.66991 82.31 9.62991 82.59 9.53991C82.87 9.44991 83.1 9.32991 83.29 9.15991C83.48 8.99991 83.62 8.79991 83.72 8.57991C83.81 8.34991 83.86 8.09991 83.86 7.82991C83.86 7.26991 83.68 6.85991 83.31 6.57991C82.94 6.29991 82.4 6.15991 81.67 6.15991H80.29V9.67991L80.3 9.66991Z" fill="#000101"/>
<path d="M94.8801 14.4799H93.9102C93.8002 14.4799 93.7102 14.4499 93.6402 14.3899C93.5702 14.3299 93.5202 14.2599 93.4802 14.1799L92.6102 11.9299H88.4302L87.5602 14.1799C87.5302 14.2599 87.4802 14.3299 87.4002 14.3899C87.3202 14.4499 87.2301 14.4799 87.1301 14.4799H86.1602L89.8902 5.15991H91.1702L94.9002 14.4799H94.8801ZM88.7701 11.0199H92.2502L90.7902 7.22991C90.6902 6.99991 90.6002 6.69991 90.5102 6.34991C90.4602 6.52991 90.4202 6.68991 90.3702 6.83991C90.3202 6.98991 90.2802 7.11991 90.2402 7.22991L88.7802 11.0199H88.7701Z" fill="#000101"/>
<path d="M100.73 11.4399C100.77 11.5499 100.82 11.6699 100.86 11.7899C100.9 11.6699 100.95 11.5499 100.99 11.4399C101.04 11.3299 101.09 11.2199 101.15 11.0999L104.3 5.36991C104.36 5.26991 104.41 5.20991 104.48 5.18991C104.54 5.16991 104.63 5.15991 104.74 5.15991H105.67V14.4799H104.57V7.62991C104.57 7.53991 104.57 7.43991 104.57 7.33991C104.57 7.22991 104.58 7.12991 104.59 7.01991L101.4 12.8499C101.29 13.0499 101.14 13.1399 100.94 13.1399H100.76C100.56 13.1399 100.41 13.0399 100.31 12.8499L97.0402 6.99991C97.0602 7.10991 97.0702 7.21991 97.0702 7.32991C97.0702 7.43991 97.0702 7.53991 97.0702 7.62991V14.4799H95.9702V5.15991H96.9002C97.0102 5.15991 97.1002 5.15991 97.1602 5.18991C97.2202 5.20991 97.2802 5.26991 97.3402 5.36991L100.56 11.1099C100.62 11.2099 100.67 11.3199 100.72 11.4399" fill="#000101"/>
<path d="M44.6501 25.1299V29.02H43.3901V19.7H46.0301C46.6201 19.7 47.1301 19.7599 47.5601 19.8799C47.9901 19.9999 48.3401 20.17 48.6201 20.4C48.9001 20.63 49.1101 20.8999 49.2401 21.2199C49.3701 21.5399 49.4401 21.89 49.4401 22.29C49.4401 22.62 49.3901 22.9299 49.2801 23.2099C49.1801 23.4999 49.0301 23.7499 48.8301 23.9799C48.6301 24.2099 48.3901 24.3999 48.1101 24.5599C47.8301 24.7199 47.5001 24.84 47.1401 24.93C47.3001 25.02 47.4301 25.15 47.5601 25.33L50.2801 29.03H49.1601C48.9301 29.03 48.7601 28.94 48.6501 28.76L46.2301 25.43C46.1601 25.33 46.0801 25.2499 45.9901 25.2099C45.9001 25.1599 45.7701 25.1399 45.6001 25.1399H44.6401L44.6501 25.1299ZM44.6501 24.2099H45.9701C46.3401 24.2099 46.6601 24.16 46.9401 24.08C47.2201 23.99 47.4501 23.87 47.6401 23.7C47.8301 23.54 47.9701 23.34 48.0701 23.12C48.1601 22.89 48.2101 22.64 48.2101 22.37C48.2101 21.82 48.0301 21.4 47.6601 21.12C47.2901 20.84 46.7501 20.7 46.0201 20.7H44.6401V24.2199L44.6501 24.2099Z" fill="#000101"/>
<path d="M58.06 19.7V20.17C58.06 20.32 58.02 20.46 57.92 20.59L52.65 28H57.97V29.03H51V28.54C51 28.41 51.04 28.29 51.12 28.17L56.4 20.74H51.24V19.7099H58.06V19.7Z" fill="#000101"/>
<path d="M67.4498 30.3899C67.4498 30.3899 67.5098 30.3899 67.5198 30.4199C67.5398 30.4399 67.5498 30.4599 67.5598 30.4799L67.7398 30.9099C67.6098 31.0099 67.4398 31.0899 67.2398 31.1499C67.0398 31.2099 66.8298 31.2499 66.5998 31.2499C66.2198 31.2499 65.9198 31.1599 65.6998 30.9899C65.4798 30.8199 65.3698 30.5899 65.3698 30.2999C65.3698 30.0499 65.4598 29.8099 65.6298 29.5899C65.7998 29.3699 66.0198 29.1799 66.2798 29.0099C66.1698 29.0099 66.0798 28.9799 66.0098 28.9199C65.9398 28.8599 65.8898 28.7899 65.8498 28.7099L64.9798 26.4599H60.7998L59.9298 28.7099C59.8998 28.7899 59.8498 28.8599 59.7698 28.9199C59.6898 28.9799 59.5998 29.0099 59.4998 29.0099H58.5298L62.2598 19.6899H63.5398L67.2698 29.0099H67.0298C66.9398 29.0599 66.8498 29.1099 66.7598 29.1799C66.6698 29.2499 66.5898 29.3199 66.5098 29.4099C66.4398 29.4899 66.3798 29.5899 66.3298 29.6899C66.2798 29.7899 66.2598 29.8999 66.2598 30.0099C66.2598 30.1699 66.3098 30.2999 66.4198 30.3999C66.5298 30.4899 66.6698 30.5399 66.8498 30.5399C66.9498 30.5399 67.0298 30.5399 67.0998 30.5199C67.1698 30.4999 67.2198 30.4899 67.2598 30.4699C67.2998 30.4499 67.3398 30.4299 67.3698 30.4199C67.3998 30.3999 67.4198 30.3899 67.4398 30.3899M61.1698 25.5599H64.6498L63.1898 21.7699C63.0898 21.5399 62.9998 21.2399 62.9098 20.8899C62.8598 21.0699 62.8198 21.2299 62.7698 21.3799C62.7198 21.5299 62.6798 21.6599 62.6398 21.7699L61.1798 25.5599H61.1698Z" fill="#000101"/>
<path d="M76.4499 24.36C76.4499 25.06 76.3399 25.69 76.1199 26.27C75.8999 26.84 75.5899 27.33 75.1799 27.74C74.7799 28.15 74.2899 28.47 73.7299 28.69C73.1699 28.91 72.5399 29.02 71.8599 29.02H68.3799V19.7H71.8599C72.5499 19.7 73.1699 19.81 73.7299 20.04C74.2899 20.26 74.7799 20.58 75.1799 20.99C75.5799 21.4 75.8999 21.8899 76.1199 22.4599C76.3399 23.0299 76.4499 23.67 76.4499 24.37M75.1599 24.36C75.1599 23.79 75.0799 23.28 74.9299 22.83C74.7699 22.38 74.5499 22 74.2599 21.68C73.9699 21.37 73.6299 21.1299 73.2199 20.9599C72.8099 20.7999 72.3599 20.7099 71.8599 20.7099H69.6399V27.99H71.8599C72.3599 27.99 72.8099 27.91 73.2199 27.74C73.6299 27.57 73.9799 27.34 74.2599 27.03C74.5499 26.72 74.7699 26.3399 74.9299 25.8899C75.0899 25.4399 75.1599 24.93 75.1599 24.35" fill="#000101"/>
<path d="M86.7501 24.3601C86.7501 25.0601 86.6401 25.7001 86.4201 26.2801C86.2001 26.8601 85.8901 27.3601 85.4801 27.7901C85.0801 28.2101 84.5901 28.5401 84.0301 28.7701C83.4701 29.0001 82.8401 29.1201 82.1501 29.1201C81.4601 29.1201 80.8401 29.0001 80.2801 28.7701C79.7101 28.5401 79.2301 28.2101 78.8301 27.7901C78.4301 27.3701 78.1101 26.8701 77.8901 26.2801C77.6701 25.7001 77.5601 25.0601 77.5601 24.3601C77.5601 23.6601 77.6701 23.0201 77.8901 22.4401C78.1101 21.8601 78.4201 21.3501 78.8301 20.9301C79.2301 20.5101 79.7201 20.1801 80.2801 19.9401C80.8401 19.7101 81.4701 19.5901 82.1501 19.5901C82.8301 19.5901 83.4601 19.7101 84.0301 19.9401C84.6001 20.1801 85.0801 20.5001 85.4801 20.9301C85.8801 21.3501 86.2001 21.8601 86.4201 22.4401C86.6401 23.0201 86.7501 23.6601 86.7501 24.3601ZM85.4601 24.3601C85.4601 23.7901 85.3801 23.2701 85.2301 22.8201C85.0701 22.3701 84.8501 21.9801 84.5701 21.6701C84.2801 21.3601 83.9401 21.1101 83.5301 20.9401C83.1201 20.7701 82.6701 20.6901 82.1701 20.6901C81.6701 20.6901 81.2201 20.7701 80.8101 20.9401C80.4001 21.1101 80.0501 21.3501 79.7701 21.6701C79.4801 21.9901 79.2601 22.3701 79.1001 22.8201C78.9401 23.2801 78.8701 23.7901 78.8701 24.3601C78.8701 24.9301 78.9501 25.4501 79.1001 25.9001C79.2501 26.3501 79.4801 26.7401 79.7701 27.0501C80.0601 27.3701 80.4101 27.6101 80.8101 27.7701C81.2201 27.9401 81.6701 28.0201 82.1701 28.0201C82.6701 28.0201 83.1301 27.9401 83.5301 27.7701C83.9401 27.6001 84.2901 27.3601 84.5701 27.0501C84.8601 26.7401 85.0801 26.3501 85.2301 25.9001C85.3901 25.4501 85.4601 24.9301 85.4601 24.3601Z" fill="#000101"/>
<path d="M87.3501 19.6999H88.4001C88.5101 19.6999 88.6101 19.7299 88.6801 19.7799C88.7601 19.8399 88.8001 19.9099 88.8301 19.9899L90.7601 26.4699C90.7901 26.5899 90.8301 26.7099 90.8501 26.8499C90.8801 26.9799 90.9101 27.1199 90.9301 27.2699C90.9601 27.1199 90.9901 26.9799 91.0201 26.8399C91.0501 26.6999 91.0801 26.5799 91.1201 26.4699L93.3101 19.9899C93.3401 19.9099 93.3901 19.8499 93.4601 19.7799C93.5401 19.7199 93.6301 19.6899 93.7401 19.6899H94.1001C94.2101 19.6899 94.3001 19.7199 94.3801 19.7699C94.4501 19.8299 94.5001 19.8999 94.5301 19.9799L96.7101 26.4599C96.7901 26.6899 96.8601 26.9399 96.9201 27.2299C96.9501 27.0899 96.9701 26.9499 96.9901 26.8199C97.0101 26.6899 97.0401 26.5699 97.0801 26.4599L99.0101 19.9799C99.0301 19.8999 99.0801 19.8299 99.1601 19.7699C99.2401 19.7099 99.3301 19.6799 99.4401 19.6799H100.42L97.5101 28.9999H96.3801L94.0201 21.8899C93.9701 21.7599 93.9301 21.5999 93.8901 21.4199C93.8701 21.5099 93.8501 21.5899 93.8301 21.6699C93.8101 21.7499 93.7901 21.8199 93.7701 21.8899L91.3901 28.9999H90.2601L87.3501 19.6799V19.6999Z" fill="#000101"/>
<path d="M105.17 25.3099V29.02H103.91V25.3099L100.5 19.7H101.61C101.72 19.7 101.81 19.73 101.88 19.78C101.95 19.84 102 19.9 102.05 19.99L104.18 23.61C104.27 23.76 104.34 23.91 104.4 24.04C104.46 24.17 104.51 24.31 104.56 24.44C104.61 24.3 104.66 24.17 104.72 24.03C104.78 23.9 104.85 23.76 104.93 23.61L107.06 19.99C107.1 19.92 107.15 19.85 107.22 19.79C107.29 19.73 107.37 19.7 107.48 19.7H108.6L105.18 25.3099H105.17Z" fill="#000101"/>
<path d="M108.58 39.5901H43.29V41.9201H108.58V39.5901Z" fill="#E30D17"/>
<path d="M108.58 37.26H43.29V39.59H108.58V37.26Z" fill="white"/>
<path d="M108.58 37.1001H43.29V37.2601H108.58V37.1001Z" fill="#1D1E1C"/>
<mask id="mask0_14_2" style="mask-type:luminance" maskUnits="userSpaceOnUse" x="0" y="0" width="39" height="42">
<path d="M38.48 0.169922H0V41.9099H38.48V0.169922Z" fill="white"/>
</mask>
<g mask="url(#mask0_14_2)">
<path d="M35 18.97C35.38 19.03 35.77 19.06 36.15 19.06C36.97 19.06 37.64 18.92 38 18.79L38.23 18.71L38.14 18.49C37.86 17.8 37.08 17.08 35.86 16.37C36.31 16.3 36.69 16.19 37 16.06C37.61 15.8 37.97 15.4 38.09 14.9C38.11 14.78 38.12 14.48 38.12 14.48C38.12 14.48 37.86 14.59 37.76 14.64C37.53 14.75 36.71 14.88 35.13 14.88C34.99 14.88 34.86 14.88 34.72 14.88C35.41 14.74 35.98 14.57 36.47 14.38C37.27 14.05 37.76 13.66 38.24 13.28C38.31 13.22 38.49 13.06 38.49 13.06C38.49 13.06 38.28 12.94 38.2 12.89C37.66 12.61 36.98 12.32 35.95 12.1C36.23 11.94 36.46 11.78 36.66 11.62C37.06 11.31 37.57 10.81 37.43 10.09C37.41 9.99997 37.33 9.76997 37.33 9.76997C37.33 9.76997 37.14 9.89997 37.07 9.94997C36.82 10.13 36.13 10.48 34.35 11.16C35.26 10.59 36.4 9.70997 36.86 8.71997C36.89 8.65997 36.96 8.45997 36.96 8.45997C36.96 8.45997 36.48 8.30997 35.95 8.30997C35.61 8.30997 35.22 8.34997 34.76 8.41997C34.84 8.32997 34.91 8.23997 34.98 8.14997C35.44 7.53997 35.54 6.99997 35.29 6.45997C35.25 6.36997 35.07 6.17997 35.07 6.17997C35.07 6.17997 34.94 6.33997 34.88 6.41997C34.68 6.69997 34.26 7.05997 33.63 7.49997C34.15 6.88997 34.48 6.22997 34.63 5.39997C34.64 5.33997 34.67 5.14997 34.67 5.14997C34.67 5.14997 34.44 5.11997 34.23 5.11997C33.51 5.11997 32.65 5.34997 31.81 5.74997C32.35 5.17997 32.86 4.34997 33.05 3.70997C33.07 3.62997 33.12 3.40997 33.12 3.40997C33.12 3.40997 32.92 3.40997 32.81 3.40997C31.51 3.51997 30.15 3.94997 28.76 4.69997C27.55 5.34997 26.57 6.09997 25.97 6.60997C24.3 8.03997 23.4 9.92997 23.69 11.43C23.81 12.04 24.17 12.82 25.16 13.38L25.18 13.54C25.24 14 25.16 14.47 24.99 14.73C24.62 15.29 23.89 15.38 23.14 15.4L23.09 15.3C22.57 14.15 22.24 12.83 22.18 12.17V12.13C22.25 12.09 22.32 12.05 22.38 12L22.5 11.9L22.45 11.75C22.26 11.21 22.39 10.36 22.51 9.54997C22.67 8.49997 22.83 7.41997 22.4 6.70997C22.57 6.60997 22.71 6.46997 22.8 6.29997C22.97 5.98997 22.95 5.62997 22.75 5.31997L22.62 5.11997L22.43 5.24997C22.43 5.24997 22.39 5.26997 22.37 5.28997C22.38 5.24997 22.39 5.21997 22.39 5.19997C22.44 4.91997 22.3 4.60997 22.04 4.45997L21.92 4.38997L21.8 4.45997C21.71 4.51997 21.59 4.55997 21.46 4.58997C21.72 3.98997 22.12 3.38997 22.48 2.84997C22.72 2.49997 22.95 2.15997 23.12 1.84997L23.36 1.41997C23.36 1.41997 22.92 1.55997 22.49 1.55997C22.14 1.57997 21.75 1.60997 21.55 1.86997C21.53 1.88997 21.52 1.91997 21.51 1.93997C21.43 1.89997 21.34 1.87997 21.24 1.87997C21.09 1.87997 20.94 1.93997 20.82 2.03997C20.76 1.73997 20.42 1.51997 20.02 1.51997C20.01 1.15997 19.75 0.849971 19.58 0.639971C19.53 0.579971 19.25 0.219971 19.25 0.219971C19.25 0.219971 18.98 0.579971 18.92 0.639971C18.75 0.849971 18.48 1.15997 18.48 1.51997C18.09 1.51997 17.75 1.73997 17.68 2.03997C17.56 1.93997 17.41 1.87997 17.26 1.87997C17.16 1.87997 17.07 1.89997 16.99 1.93997C16.98 1.91997 16.97 1.88997 16.95 1.86997C16.75 1.60997 16.36 1.57997 16.01 1.55997C15.58 1.55997 15.14 1.41997 15.14 1.41997L15.38 1.84997C15.55 2.15997 15.78 2.49997 16.02 2.84997C16.42 3.43997 16.87 4.09997 17.11 4.76997C16.99 4.87997 16.95 5.01997 16.93 5.14997H16.74C15.87 5.14997 15.55 5.60997 15.43 5.87997C15.2 6.43997 15.41 7.13997 15.66 7.39997L15.85 7.59997L16.01 7.37997C16.13 7.20997 16.31 7.17997 16.43 7.17997C16.61 7.17997 16.8 7.24997 16.95 7.35997L17.03 7.42997L17.13 7.40997C17.23 7.38997 17.34 7.37997 17.44 7.37997C17.71 7.37997 17.96 7.44997 18.15 7.57997C18.09 7.55997 18.02 7.54997 17.95 7.53997C17.87 7.53997 17.79 7.52997 17.72 7.52997C17.15 7.52997 16.72 7.73997 16.35 7.92997C16.27 7.96997 16.19 8.00997 16.11 8.04997C16.05 8.07997 15.98 8.08997 15.89 8.08997C15.65 8.08997 15.4 7.97997 15.39 7.97997L15.14 7.85997L15.07 8.11997C15.01 8.33997 15.04 8.54997 15.17 8.71997C15.32 8.91997 15.59 9.02997 15.9 9.02997C16.02 9.02997 16.15 9.00997 16.28 8.97997C16.53 8.91997 16.72 8.82997 16.89 8.73997C16.89 8.84997 16.92 8.92997 16.92 8.93997L17.01 9.17997L17.24 9.07997C17.24 9.07997 17.6 8.91997 17.91 8.91997C17.94 8.91997 17.97 8.91997 18 8.91997C18.05 8.91997 18.1 8.93997 18.15 8.93997L18.18 8.96997C18.4 9.15997 18.49 9.39997 18.46 9.68997C18.38 10.42 17.52 11.29 16.95 11.62L16.73 11.74L16.87 11.95C16.92 12.03 16.99 12.1 17.06 12.16C16.24 12.95 15.97 13.71 15.75 14.33C15.62 14.68 15.51 14.98 15.33 15.23L15.21 15.4C14.49 15.38 13.81 15.27 13.45 14.73C13.27 14.47 13.2 14 13.26 13.54L13.28 13.38C14.28 12.82 14.64 12.04 14.75 11.43C15.04 9.92997 14.14 8.03997 12.47 6.60997C11.87 6.09997 10.89 5.33997 9.67998 4.69997C8.28998 3.94997 6.92998 3.51997 5.62998 3.40997C5.51998 3.40997 5.31998 3.40997 5.31998 3.40997C5.31998 3.40997 5.35998 3.62997 5.38998 3.70997C5.57998 4.34997 6.08998 5.17997 6.63998 5.74997C5.79998 5.34997 4.93998 5.11997 4.20998 5.11997C3.99998 5.11997 3.76998 5.14997 3.76998 5.14997C3.76998 5.14997 3.79998 5.33997 3.80998 5.39997C3.95998 6.22997 4.28998 6.88997 4.80998 7.49997C4.17998 7.05997 3.75998 6.69997 3.55998 6.41997C3.49998 6.33997 3.36998 6.17997 3.36998 6.17997C3.36998 6.17997 3.19998 6.36997 3.15998 6.45997C2.91998 6.99997 3.00998 7.53997 3.47998 8.14997C3.53998 8.23997 3.61998 8.31997 3.69998 8.41997C3.24998 8.34997 2.84998 8.30997 2.51998 8.30997C1.98998 8.30997 1.49998 8.45997 1.49998 8.45997C1.49998 8.45997 1.57998 8.64997 1.60998 8.71997C2.05998 9.70997 3.19998 10.59 4.10998 11.16C2.33998 10.48 1.64998 10.13 1.39998 9.94997C1.31998 9.89997 1.13998 9.76997 1.13998 9.76997C1.13998 9.76997 1.04998 10.01 1.03998 10.09C0.89998 10.81 1.40998 11.31 1.80998 11.62C2.00998 11.78 2.24998 11.94 2.51998 12.1C1.48998 12.31 0.809981 12.6 0.26998 12.89C0.18998 12.93 -0.0200195 13.06 -0.0200195 13.06C-0.0200195 13.06 0.15998 13.23 0.22998 13.28C0.70998 13.66 1.19998 14.05 1.99998 14.38C2.48998 14.58 3.05998 14.74 3.74998 14.88C3.60998 14.88 3.46998 14.88 3.33998 14.88C1.75998 14.88 0.93998 14.76 0.70998 14.64C0.59998 14.59 0.33998 14.48 0.33998 14.48C0.33998 14.48 0.33998 14.79 0.37998 14.9C0.48998 15.4 0.84998 15.8 1.45998 16.06C1.76998 16.2 2.14998 16.3 2.59998 16.37C1.38998 17.08 0.59998 17.8 0.31998 18.49L0.22998 18.71L0.45998 18.79C0.80998 18.92 1.48998 19.06 2.30998 19.06C2.68998 19.06 3.07998 19.03 3.45998 18.97C2.21998 19.82 1.21998 20.31 0.62998 20.33L0.0199805 20.35L0.48998 20.74C0.92998 21.11 1.46998 21.29 2.08998 21.29C2.70998 21.29 3.45998 21.1 4.29998 20.72C3.87998 21.29 3.50998 21.88 3.20998 22.5C2.52998 23.88 2.28998 25.08 2.20998 25.84L2.16998 26.18L2.49998 26.09C4.24998 25.61 5.54998 24.92 7.08998 22.99C6.06998 24.96 4.84998 27.3 4.16998 27.64L3.49998 27.97L4.23998 28.08C4.43998 28.11 4.61998 28.12 4.79998 28.12C5.45998 28.12 5.98998 27.9 6.49998 27.43C7.02998 26.93 7.53998 26.12 8.10998 24.89C8.13998 24.83 8.17998 24.73 8.21998 24.62C8.17998 24.81 8.13998 25 8.10998 25.19C7.75998 27.12 7.74998 28.51 8.07998 29.44L8.18998 29.75L8.44998 29.55C9.41998 28.78 10.17 27.83 10.72 26.64C10.65 26.97 10.6 27.24 10.55 27.42L10.44 27.87L10.87 27.68C11.51 27.4 12.39 26.51 13.01 23.86C13.11 24.07 13.21 24.24 13.29 24.36L13.43 24.56L13.62 24.4C13.9 24.17 14.25 23.67 14.53 23.1C14.73 22.69 14.97 22.08 15.11 21.33C15.19 21.34 15.28 21.35 15.37 21.35C16 21.35 16.53 21.12 16.88 20.7C16.96 20.97 17.02 21.2 17.05 21.29C16.98 21.29 16.9 21.29 16.83 21.29C15.37 21.29 15.06 22.21 14.85 22.81C14.43 24.04 13.3 25.2 12.94 25.44C12.85 25.5 12.62 25.66 12.62 25.66C12.62 25.66 12.7 25.79 12.94 25.85C12.65 26.33 11.88 26.94 11.88 26.94C11.88 26.94 12.03 27.06 12.3 27.1C11.64 27.65 11.12 27.85 11.12 27.85C11.12 27.85 11.3 28.02 11.61 28.13C11.21 28.53 10.64 28.88 10.64 28.88C10.64 28.88 10.82 29.03 10.96 29.09C11.38 29.28 11.81 29.39 12.29 29.41C12.03 29.67 11.79 29.91 11.62 30.06L11.36 30.28C11.36 30.28 11.43 30.37 11.56 30.39C11.44 30.51 11.09 30.83 10.88 30.99L10.62 31.2C10.62 31.2 10.69 31.27 10.8 31.31C10.62 31.53 10.22 31.84 10.08 31.94L9.78998 32.16C9.78998 32.16 9.87998 32.24 9.97998 32.26C9.82998 32.4 9.46998 32.69 9.27998 32.8C9.20998 32.84 8.98998 32.96 8.98998 32.96C8.98998 32.96 9.07998 33.09 9.21998 33.17C9.16998 33.2 9.12998 33.26 8.94998 33.26C8.71998 33.26 8.35998 33.17 7.91998 33.02C7.58998 32.91 7.11998 32.84 6.71998 32.84C6.59998 32.53 6.25998 32.15 5.72998 32.15C5.42998 32.15 5.14998 32.27 4.95998 32.48C4.81998 32.63 4.73998 32.81 4.69998 33C4.50998 32.95 4.35998 33.07 4.29998 33.2C4.25998 33.27 4.23998 33.36 4.25998 33.44C4.03998 33.63 3.90998 33.88 3.91998 34.14C3.91998 34.46 4.09998 34.78 4.39998 35.01L4.64998 35.2L4.75998 34.91C4.83998 34.71 5.02998 34.49 5.22998 34.31C5.33998 34.33 5.44998 34.34 5.54998 34.34C5.97998 34.34 6.25998 34.18 6.41998 34.04C6.83998 34.23 7.03998 34.38 7.41998 34.43C7.20998 34.52 7.06998 34.54 6.99998 34.57C6.81998 34.62 6.65998 34.68 6.45998 34.81C6.26998 34.66 6.03998 34.57 5.79998 34.57C5.59998 34.57 5.39998 34.63 5.23998 34.73C4.82998 34.99 4.64998 35.48 4.78998 35.94C4.78998 35.95 4.78998 35.96 4.79998 35.98C4.73998 36.03 4.69998 36.1 4.68998 36.18C4.65998 36.32 4.70998 36.51 4.90998 36.65C4.85998 36.96 4.92998 37.21 5.09998 37.4C5.28998 37.63 5.59998 37.75 5.95998 37.75C6.10998 37.75 6.37998 37.72 6.37998 37.72L6.26998 37.43C6.18998 37.22 6.18998 36.99 6.21998 36.74C6.53998 36.59 6.78998 36.28 6.86998 35.95C7.39998 35.89 7.81998 35.66 8.29998 35.23C8.29998 35.23 8.07998 35.56 7.96998 35.74C7.93998 35.79 7.90998 35.84 7.86998 35.9C7.83998 35.9 7.81998 35.9 7.78998 35.9C7.35998 35.9 7.01998 36.12 6.84998 36.49C6.67998 36.86 6.72998 37.31 6.95998 37.57C6.97998 37.59 6.99998 37.61 7.01998 37.63C6.96998 37.69 6.94998 37.77 6.94998 37.85C6.94998 38 7.04998 38.17 7.24998 38.24C7.28998 38.75 7.66998 39.09 8.20998 39.09C8.51998 39.09 8.90998 38.94 8.90998 38.94L8.73998 38.68C8.61998 38.49 8.54998 38.28 8.52998 37.98C8.91998 37.68 9.02998 37.16 8.86998 36.66C9.22998 36.31 9.42998 35.91 9.59998 35.54C9.61998 35.5 9.63998 35.46 9.65998 35.43C10.02 35.52 10.38 35.53 10.63 35.53C10.73 35.53 10.82 35.53 10.9 35.53C10.98 35.8 11.14 36.01 11.37 36.15C11.36 36.41 11.33 36.67 11.23 36.85L11.09 37.1C11.09 37.1 11.47 37.22 11.69 37.22C11.99 37.22 12.25 37.12 12.43 36.93C12.59 36.77 12.67 36.53 12.68 36.28C12.93 36.21 13.02 36.01 13.01 35.85C13.01 35.75 12.97 35.66 12.92 35.6C13.11 35.35 13.13 34.96 12.98 34.64C12.81 34.27 12.43 34.03 12 34.02C11.78 34.02 11.58 34.1 11.43 34.17C11.31 34.22 11.21 34.27 11.11 34.27C11.09 34.27 11.07 34.27 11.06 34.27C11.02 34.12 10.99 33.9 11.18 33.69C11.5 33.34 12.9 32.14 14.03 31.19C14.26 30.99 14.48 30.81 14.67 30.65C14.91 31.07 15.28 31.35 15.76 31.47C15.89 31.5 16.09 31.52 16.09 31.52C16.09 31.52 15.98 30.94 16.02 30.53C16.18 30.61 16.35 30.66 16.35 30.66C16.35 30.66 16.37 30.43 16.38 30.36C16.49 29.22 16.74 28.01 17.68 26.78C17.57 28.12 17.29 29.25 16.86 30.03L16.58 30.56L17.15 30.37C17.4 30.28 17.61 30.15 17.8 29.98C17.6 31.04 17.12 32.03 16.49 32.03C16.33 32.03 16.16 31.97 15.98 31.84L15.72 31.66L15.62 31.96C15.43 32.52 15.57 32.9 15.73 33.11C15.94 33.4 16.31 33.58 16.71 33.58C17.03 33.58 17.32 33.51 17.57 33.4C17 34.11 16.08 34.74 15.34 34.74C15.16 34.74 15.08 34.68 15.04 34.63C14.91 34.47 14.9 34.15 14.95 33.91L15.01 33.6L14.7 33.63C14.43 33.66 14.12 33.84 13.87 34.1C13.59 34.4 13.43 34.77 13.43 35.12C13.43 35.6 13.57 36 13.85 36.3C13.91 36.37 13.97 36.42 14.05 36.48C13.5 36.78 13.19 37.28 13.19 37.87C13.19 38.41 13.45 38.9 13.91 39.27C14.31 39.58 14.84 39.76 15.35 39.76C16.15 39.76 16.85 39.53 17.45 39.08C17.8 38.81 18.08 38.5 18.29 38.21C18.32 39.51 18.56 40.58 19.04 41.51L19.25 41.91L19.46 41.51C19.94 40.58 20.18 39.51 20.21 38.21C20.42 38.5 20.7 38.81 21.05 39.08C21.65 39.53 22.35 39.76 23.15 39.76C23.66 39.76 24.18 39.58 24.59 39.27C25.05 38.91 25.31 38.41 25.31 37.87C25.31 37.28 25 36.78 24.45 36.48C24.52 36.43 24.59 36.37 24.65 36.3C24.92 36.01 25.07 35.6 25.07 35.12C25.07 34.76 24.91 34.4 24.63 34.1C24.38 33.83 24.07 33.66 23.8 33.63C23.72 33.63 23.49 33.6 23.49 33.6L23.55 33.91C23.6 34.15 23.59 34.47 23.46 34.63C23.42 34.68 23.34 34.74 23.16 34.74C22.42 34.74 21.5 34.1 20.93 33.4C21.18 33.51 21.46 33.58 21.79 33.58C22.19 33.58 22.56 33.4 22.77 33.11C22.92 32.9 23.07 32.52 22.88 31.96L22.78 31.66L22.52 31.84C22.34 31.96 22.17 32.03 22.01 32.03C21.38 32.03 20.9 31.05 20.7 29.98C20.89 30.15 21.1 30.28 21.35 30.37L21.92 30.56L21.63 30.03C21.21 29.25 20.93 28.12 20.81 26.78C21.75 28 22 29.22 22.11 30.36C22.11 30.44 22.14 30.66 22.14 30.66C22.14 30.66 22.31 30.62 22.47 30.53C22.5 30.94 22.4 31.52 22.4 31.52C22.4 31.52 22.6 31.5 22.73 31.47C23.22 31.35 23.58 31.08 23.82 30.65C24.01 30.81 24.22 30.99 24.46 31.19C25.59 32.15 26.99 33.34 27.31 33.69C27.5 33.9 27.48 34.12 27.43 34.27C27.41 34.27 27.4 34.27 27.38 34.27C27.28 34.27 27.18 34.22 27.05 34.17C26.89 34.1 26.7 34.01 26.48 34.02C26.05 34.03 25.67 34.27 25.5 34.64C25.35 34.96 25.37 35.35 25.56 35.6C25.5 35.67 25.47 35.75 25.46 35.85C25.46 36.01 25.54 36.2 25.79 36.28C25.79 36.53 25.88 36.77 26.04 36.93C26.22 37.11 26.49 37.22 26.78 37.22C27 37.22 27.38 37.1 27.38 37.1L27.24 36.85C27.14 36.67 27.11 36.41 27.1 36.15C27.33 36.01 27.49 35.8 27.57 35.53C27.65 35.53 27.74 35.53 27.84 35.53C28.08 35.53 28.45 35.51 28.8 35.43C28.82 35.47 28.84 35.5 28.86 35.54C29.04 35.9 29.24 36.31 29.59 36.66C29.43 37.16 29.55 37.69 29.93 37.98C29.91 38.28 29.84 38.49 29.72 38.68L29.55 38.94C29.55 38.94 29.94 39.09 30.25 39.09C30.79 39.09 31.17 38.75 31.21 38.24C31.41 38.17 31.51 38 31.51 37.85C31.51 37.76 31.48 37.69 31.44 37.63C31.46 37.61 31.48 37.59 31.5 37.57C31.73 37.3 31.78 36.86 31.61 36.49C31.44 36.11 31.1 35.9 30.67 35.9C30.64 35.9 30.61 35.9 30.59 35.9C30.56 35.84 30.53 35.79 30.49 35.74C30.38 35.56 30.17 35.23 30.17 35.23C30.65 35.66 31.06 35.88 31.59 35.95C31.67 36.28 31.91 36.59 32.24 36.74C32.27 36.99 32.27 37.23 32.19 37.43L32.08 37.72C32.08 37.72 32.35 37.75 32.5 37.75C32.85 37.75 33.17 37.62 33.36 37.4C33.52 37.21 33.6 36.96 33.55 36.65C33.75 36.51 33.8 36.32 33.77 36.18C33.75 36.1 33.71 36.03 33.66 35.98C33.66 35.97 33.67 35.96 33.68 35.94C33.82 35.49 33.64 34.99 33.23 34.73C33.07 34.63 32.87 34.57 32.67 34.57C32.43 34.57 32.2 34.65 32.01 34.81C31.81 34.68 31.65 34.63 31.47 34.57C31.4 34.55 31.25 34.52 31.05 34.43C31.43 34.38 31.63 34.23 32.05 34.04C32.21 34.18 32.49 34.34 32.92 34.34C33.02 34.34 33.13 34.33 33.24 34.31C33.45 34.48 33.63 34.7 33.71 34.91L33.82 35.2L34.07 35.01C34.37 34.77 34.55 34.46 34.55 34.14C34.55 33.87 34.43 33.62 34.21 33.44C34.21 33.36 34.21 33.27 34.17 33.2C34.1 33.07 33.96 32.95 33.77 33C33.73 32.8 33.64 32.62 33.51 32.48C33.32 32.27 33.04 32.15 32.74 32.15C32.21 32.15 31.87 32.53 31.75 32.84C31.35 32.84 30.88 32.91 30.55 33.02C30.11 33.17 29.75 33.26 29.52 33.26C29.34 33.26 29.3 33.2 29.25 33.17C29.39 33.09 29.48 32.96 29.48 32.96C29.48 32.96 29.26 32.84 29.19 32.8C29 32.69 28.64 32.4 28.49 32.26C28.59 32.23 28.68 32.16 28.68 32.16L28.39 31.94C28.25 31.84 27.85 31.53 27.67 31.31C27.77 31.27 27.85 31.2 27.85 31.2L27.59 30.99C27.39 30.83 27.04 30.51 26.92 30.39C27.05 30.36 27.12 30.28 27.12 30.28L26.86 30.06C26.69 29.91 26.45 29.68 26.19 29.41C26.67 29.39 27.1 29.28 27.52 29.09C27.66 29.02 27.84 28.88 27.84 28.88C27.84 28.88 27.27 28.53 26.87 28.13C27.18 28.02 27.36 27.85 27.36 27.85C27.36 27.85 26.84 27.65 26.18 27.1C26.45 27.06 26.6 26.94 26.6 26.94C26.6 26.94 25.83 26.33 25.54 25.85C25.78 25.79 25.86 25.66 25.86 25.66C25.86 25.66 25.63 25.5 25.54 25.44C25.18 25.2 24.06 24.04 23.64 22.81C23.43 22.2 23.11 21.29 21.65 21.29C21.58 21.29 21.51 21.29 21.43 21.29C21.45 21.2 21.52 20.97 21.6 20.7C21.95 21.12 22.48 21.35 23.11 21.35C23.2 21.35 23.28 21.35 23.37 21.33C23.51 22.08 23.75 22.69 23.95 23.1C24.23 23.67 24.58 24.17 24.86 24.4L25.05 24.56L25.19 24.36C25.28 24.24 25.38 24.07 25.47 23.86C26.09 26.51 26.97 27.4 27.61 27.68L28.04 27.87L27.93 27.42C27.89 27.24 27.83 26.97 27.76 26.64C28.31 27.83 29.05 28.78 30.02 29.55L30.27 29.75L30.38 29.44C30.71 28.52 30.7 27.12 30.35 25.19C30.31 25 30.28 24.81 30.24 24.62C30.28 24.73 30.32 24.83 30.35 24.89C30.91 26.12 31.42 26.92 31.95 27.43C32.45 27.9 32.99 28.12 33.65 28.12C33.82 28.12 34 28.11 34.21 28.08L34.95 27.97L34.28 27.64C33.6 27.3 32.38 24.96 31.36 22.99C32.89 24.93 34.2 25.61 35.95 26.09L36.28 26.18L36.24 25.84C36.16 25.07 35.92 23.87 35.23 22.5C34.92 21.87 34.56 21.28 34.14 20.72C34.98 21.1 35.71 21.29 36.35 21.29C36.99 21.29 37.51 21.1 37.96 20.74L38.43 20.35L37.82 20.33C37.24 20.31 36.23 19.82 34.99 18.97M18.28 3.59997C18.18 3.65997 18.03 3.68997 17.92 3.64997C17.67 3.57997 17.6 3.08997 17.87 2.65997C18.26 2.89997 18.48 3.47997 18.28 3.59997ZM15.34 37.55C15.06 37.55 14.86 37.39 14.74 37.25C14.56 37.05 14.48 36.81 14.47 36.7C14.72 36.79 15.01 36.84 15.33 36.84C16.02 36.84 16.78 36.5 17.24 36.22C16.6 36.97 15.91 37.56 15.33 37.56M23.14 36.84C23.47 36.84 23.76 36.8 24 36.7C24 36.81 23.91 37.04 23.73 37.25C23.61 37.39 23.41 37.55 23.13 37.55C22.56 37.55 21.86 36.97 21.22 36.21C21.68 36.5 22.43 36.83 23.13 36.83M20.57 3.65997C20.46 3.68997 20.31 3.65997 20.21 3.60997C20.01 3.48997 20.23 2.90997 20.62 2.66997C20.89 3.10997 20.82 3.58997 20.57 3.65997Z" fill="#1D1E1C"/>
</g>
<path d="M11.0599 28.8901C11.3599 28.7101 11.5399 28.5201 11.8699 28.2101C12.1299 28.2801 12.4399 28.3301 12.7799 28.3301C13.6799 28.3301 14.7199 28.0201 15.2099 27.2101H15.2199C16.0499 27.2101 16.7399 26.7601 17.1799 26.0801C16.6999 26.4601 16.1299 26.9201 15.2399 26.9201C15.1899 26.9201 15.1399 26.9201 15.0899 26.9201C14.6599 27.7901 13.6099 28.0901 12.7299 28.0901C12.2699 28.0901 11.8499 28.0101 11.6099 27.8901C11.7999 27.8001 12.2899 27.5001 12.5999 27.1601C12.7499 27.1801 12.8999 27.1901 13.0499 27.1901C13.9399 27.1901 14.7599 26.7901 15.2199 26.1601C16.1099 26.1301 16.8099 25.5601 17.1799 24.9901C16.7399 25.3401 16.0899 25.8701 15.1899 25.8701H15.1799C14.5399 26.7201 13.6799 26.9601 12.9899 26.9601C12.7199 26.9601 12.4899 26.9201 12.2999 26.8701C12.5399 26.6801 12.9499 26.3301 13.1899 25.9101C13.3099 25.9201 13.4199 25.9301 13.5399 25.9301C14.3899 25.9301 15.1699 25.5301 15.5099 24.9001C16.1699 24.8201 16.7399 24.6001 17.1899 23.8401C16.6599 24.3601 16.2199 24.6401 15.3999 24.6601C15.0599 25.3201 14.2799 25.7001 13.5399 25.7001C13.3899 25.7001 13.2299 25.6801 13.0899 25.6501C13.5099 25.3701 14.6499 24.1501 15.0799 22.9001C15.2999 22.2701 15.5799 21.5401 16.8499 21.5401C16.9599 21.5401 17.0699 21.5401 17.1899 21.5601C17.4399 22.3401 17.7499 24.0501 17.7499 25.4001C17.7499 25.7401 17.7399 26.0701 17.7199 26.3901C16.4899 27.8501 16.2699 29.2901 16.1599 30.3501C15.5799 30.0901 15.2199 29.3001 15.4299 27.9601C14.9299 29.1901 15.3599 30.0401 15.8199 30.4201C15.7599 30.6801 15.8399 31.2601 15.8399 31.2601C14.8699 31.0201 14.5099 30.0001 14.5299 28.7401C13.8399 29.0401 13.1399 29.2001 12.4999 29.2001C11.9799 29.2001 11.4999 29.1001 11.0799 28.8901M13.2499 29.3601C13.1799 29.6801 13.1199 30.1801 13.2899 30.5101C13.6999 30.4701 14.0899 30.3601 14.4199 30.0101C14.3599 29.7801 14.3199 29.5401 14.2999 29.2701C13.9699 29.6501 13.5599 30.1001 13.4499 30.2101C13.5299 30.0801 13.8399 29.5701 14.0999 29.1501C13.8199 29.2501 13.5299 29.3201 13.2499 29.3601ZM11.7999 22.6101C11.1399 21.7001 11.1799 20.3901 11.5499 18.8801C11.7099 19.2501 11.9899 19.5201 12.3399 19.6601C12.1599 20.6801 11.9099 22.1101 11.9099 22.1101C11.9099 22.1101 12.3199 20.7101 12.5899 19.7301C12.6899 19.7501 12.7799 19.7601 12.8799 19.7601C13.1099 19.7601 13.3399 19.7101 13.5399 19.6001C13.1999 20.9701 12.7099 22.0001 11.7899 22.5901M11.2999 18.8401C11.2099 18.8601 11.1199 18.8701 11.0199 18.8701C10.7699 18.8701 10.5299 18.8001 10.3099 18.6801C9.7999 19.5201 9.0199 20.7701 9.0199 20.7701L10.0899 18.5301C9.9999 18.4601 9.9299 18.3801 9.8599 18.2901C9.7099 18.1001 9.6099 17.8801 9.5699 17.6501C8.8199 18.6901 8.4299 19.8701 8.7799 21.2001C9.7799 20.9101 10.6899 20.0301 11.2899 18.8301M8.3399 12.7301C7.3699 12.3801 6.0499 11.8101 6.0499 11.8101C6.0499 11.8101 7.3499 12.1901 8.2499 12.4501C8.1699 12.1001 8.2199 11.7501 8.3899 11.4301C7.7499 11.2801 7.2699 11.1901 6.8399 11.1901C6.3199 11.1901 5.8799 11.3201 5.3599 11.6101C5.7499 12.5301 6.7299 13.1401 7.7399 13.4001C7.8599 13.1301 8.0699 12.9001 8.3299 12.7301M7.0099 18.0801C8.0399 18.0801 8.9499 17.6801 9.5499 17.3001C9.1199 17.2701 8.7399 17.0801 8.4899 16.7701C7.7699 17.1801 6.7599 17.7701 6.7599 17.7701C6.7599 17.7701 7.6999 17.0701 8.3599 16.5801C8.3599 16.5601 8.3399 16.5501 8.3299 16.5301C8.1699 16.2301 8.1299 15.8801 8.1899 15.5501C7.1999 16.2101 6.5599 17.1401 6.3499 18.0201C6.5699 18.0601 6.7899 18.0701 6.9999 18.0701M3.4199 15.9301C3.7199 15.7801 4.2499 15.5601 4.9799 15.2901C4.8599 15.2301 4.7499 15.1601 4.6799 15.0901L4.6399 15.0601C4.1999 15.0701 3.7699 15.0801 3.3599 15.0801C2.0699 15.0801 0.989902 15.0001 0.629902 14.8201C0.759902 15.4201 1.3399 15.9501 2.9599 16.1601C3.1099 16.0801 3.2599 16.0001 3.4199 15.9201M6.9699 15.5101C7.4199 15.5101 7.8899 15.4401 8.3099 15.2401C8.0499 15.0901 7.8599 14.8601 7.7399 14.5801C6.8499 14.6901 5.4399 14.8601 5.4399 14.8601C5.4399 14.8601 6.7199 14.5701 7.6599 14.3701C7.6399 14.2701 7.6199 14.1701 7.6199 14.0701C7.6199 13.9201 7.6299 13.7601 7.6699 13.6301C7.5699 13.6101 7.4699 13.6101 7.3699 13.6101C6.2499 13.6101 5.2499 14.4001 4.8199 14.9301C5.0999 15.1801 5.9999 15.5201 6.9599 15.5201M11.4099 12.8501C11.7799 12.1601 11.2999 11.6301 11.0999 11.2401C10.8199 11.5801 10.2399 12.0001 10.4599 12.7501C9.6799 12.7801 9.4599 13.4601 9.2199 13.8301C9.4499 13.8701 9.7399 13.9701 10.0499 13.9701C10.3199 13.9701 10.5899 13.8901 10.8499 13.6301C11.1499 14.1101 11.5999 14.1601 11.9999 14.1601C12.1099 14.1601 12.2099 14.1601 12.3099 14.1601C12.3399 14.1601 12.3699 14.1601 12.3999 14.1601C12.2499 13.7501 12.1699 13.0401 11.4099 12.8501ZM11.7799 9.7301C11.5599 9.2401 11.2699 8.7601 10.6999 7.9601C11.7299 9.1601 12.0999 9.6501 12.3799 10.3201C12.4499 10.4601 12.4999 10.6201 12.5299 10.8001C13.0599 10.8801 13.4099 11.2101 13.5999 11.5901C13.5699 10.0801 12.6099 8.2701 10.2299 7.2701C10.1399 8.1101 10.4599 9.0501 10.7099 9.5901C10.8299 9.5601 10.9499 9.5501 11.0699 9.5501C11.3099 9.5501 11.5599 9.6201 11.7799 9.7301ZM13.2999 14.8301C13.0699 14.4801 13.0099 13.9301 13.0699 13.4801C13.0699 13.4801 12.8399 13.6601 12.4999 13.7001C12.5199 13.7601 12.5399 13.8201 12.5499 13.8701C12.5799 13.9501 12.7399 14.4101 12.7399 14.4101C12.7399 14.4101 12.0499 14.4001 11.9899 14.4001C11.8399 14.4001 11.5699 14.4001 11.2999 14.3001C11.2999 14.8101 11.4399 15.2501 11.7399 15.6201C12.4099 16.4501 13.8799 16.9401 15.7599 16.9701C15.6299 16.5201 15.5299 16.0501 15.5699 15.6001C14.7199 15.6001 13.7599 15.5401 13.2899 14.8301M11.0799 14.1801C10.9899 14.1201 10.8999 14.0501 10.8199 13.9601C10.7299 14.0301 10.6299 14.0801 10.5199 14.1201C10.1699 16.9201 13.5299 18.3101 16.2199 18.4201V18.3901C16.1499 18.1201 16.0599 17.8301 15.9499 17.5201C15.9199 17.4201 15.8799 17.3101 15.8499 17.2001C13.4099 17.1701 10.9499 16.3601 11.0799 14.1801ZM0.399902 13.0601C1.3199 13.7901 2.0999 14.3801 4.6599 14.7701C4.9199 14.4401 5.3099 14.1101 5.7299 13.8601C6.0199 13.6901 6.3099 13.5601 6.6099 13.4801C4.8099 13.3701 2.1399 13.2101 1.2199 13.1301C2.3599 13.1701 4.6299 13.2101 6.7499 13.2701C6.6599 13.2301 6.5799 13.1801 6.4999 13.1401C5.9699 12.8301 5.5699 12.4401 5.2999 11.9901C2.5799 12.1201 1.2999 12.6001 0.399902 13.0701M16.5099 20.3001C16.5999 20.3001 16.6799 20.3001 16.7599 20.2701C16.6299 19.8301 16.4999 19.3601 16.4199 19.1001C16.3899 18.9901 16.3499 18.8401 16.3099 18.6501C14.3999 18.6001 12.0599 17.9101 10.9199 16.4401C10.3999 15.7701 10.1799 15.0101 10.2699 14.1801C10.1999 14.1801 10.1199 14.1901 10.0499 14.1901C9.8099 14.1901 9.5899 14.1401 9.3999 14.0901C9.3199 14.0701 8.8299 13.9901 8.8299 13.9901C8.8299 13.9901 9.0899 13.5701 9.1299 13.5001C9.3199 13.1601 9.5799 12.6701 10.1799 12.5401C10.1199 11.9401 10.4999 11.5301 10.7699 11.2501C10.8199 11.1901 11.1399 10.8101 11.1399 10.8101C11.1399 10.8101 11.3699 11.2501 11.4199 11.3201C11.6199 11.6501 11.9099 12.1201 11.7199 12.7001C12.0899 12.8701 12.2899 13.1701 12.4099 13.4601C13.1099 13.3401 13.5299 12.7501 13.5299 12.2401C13.5299 11.7801 13.1699 11.0101 12.3099 11.0101C12.3099 10.2501 11.6999 9.7701 11.0799 9.7701C10.5599 9.7701 9.9399 10.1401 9.8499 10.9001C9.8099 10.9001 9.7599 10.9001 9.7199 10.9001C8.7699 10.9001 8.0999 11.8701 8.6599 12.8201C7.5299 13.3101 7.6699 14.8001 8.6399 15.1301C8.0799 15.9501 8.5799 17.0701 9.6899 17.0701C9.7399 17.0701 9.7799 17.0701 9.8299 17.0701C9.6299 17.9201 10.2899 18.6301 11.0299 18.6301C11.2399 18.6301 11.4599 18.5701 11.6699 18.4401C11.7799 19.1301 12.3199 19.5301 12.8899 19.5301C13.1599 19.5301 13.4399 19.4401 13.6899 19.2401C13.8599 19.6801 14.3099 19.9901 14.8099 19.9901C15.0299 19.9901 15.2599 19.9301 15.4899 19.7901C15.6799 20.1001 16.1299 20.2701 16.5199 20.2701M9.5199 10.6901C9.0799 10.0301 8.4799 9.1401 8.3099 8.9101L9.6899 10.5201C9.8299 10.1201 10.1099 9.8401 10.4299 9.6901C9.7999 9.1001 8.8399 8.4301 7.8299 8.3701C7.6799 9.3701 8.0799 10.3901 8.6399 11.1001C8.8699 10.8701 9.1799 10.7301 9.5199 10.6801M15.3799 21.1301C16.0399 21.1301 16.4799 20.8601 16.7499 20.5101C16.6799 20.5301 16.5899 20.5301 16.5099 20.5301C16.1499 20.5301 15.6999 20.4001 15.4199 20.1101C15.2199 20.2001 15.0099 20.2401 14.7999 20.2401C14.4299 20.2401 14.0799 20.1001 13.8199 19.8601C13.9999 20.5401 14.6299 21.1301 15.3799 21.1301ZM11.1999 25.4001C11.0299 26.2801 10.8699 27.0801 10.7799 27.4801C11.3099 27.2501 12.2199 26.4401 12.8599 23.4901C12.7399 23.1501 12.6299 22.7301 12.5699 22.2601C12.3799 22.4701 12.1699 22.6501 11.9299 22.8001L11.8699 22.8401C11.8199 23.0301 11.7799 23.2201 11.7299 23.4201C11.5799 24.0401 11.4199 24.7201 11.1999 25.4001ZM4.2899 27.8501C4.4699 27.8801 4.6399 27.8901 4.8099 27.8901C5.9099 27.8901 6.7799 27.2401 7.8999 24.7901C8.0299 24.5001 8.3599 23.6001 8.6899 22.6601C8.8099 22.2001 8.9299 21.7601 9.0499 21.3601C8.9799 21.3801 8.9099 21.4101 8.8399 21.4301L8.6099 21.4901L8.5499 21.2601C8.5299 21.1701 8.5099 21.0801 8.4899 20.9901C8.3299 21.2501 8.1699 21.4901 8.0099 21.7301C7.8199 22.1001 7.6499 22.4301 7.5499 22.6301C6.3899 24.8901 5.0899 27.4501 4.2799 27.8501M9.3299 21.2501C8.6699 23.5601 7.6099 27.4401 8.3099 29.3701C10.6899 27.4901 11.1199 24.8901 11.6399 22.7901L11.6099 22.7501C11.2299 22.2201 11.0499 21.5701 11.0499 20.7501C11.0499 20.5601 11.0599 20.3601 11.0799 20.1501C10.3299 22.7401 9.1299 26.8301 8.5399 28.6301C9.0599 26.6901 10.1099 22.7101 10.7899 20.0501C10.3499 20.5901 9.8499 21.0001 9.3199 21.2501M2.4599 25.8701C4.6999 25.2501 6.1899 24.3101 8.4399 20.6401C8.3799 20.0901 8.4399 19.5401 8.6099 19.0001C8.7099 18.6801 8.8499 18.3701 9.0299 18.0601C7.0999 20.3701 4.3499 23.6501 2.9999 25.2001C4.1299 23.7301 7.0999 20.0601 8.8199 17.9401C8.2199 18.1901 7.6099 18.3201 7.0099 18.3201C6.9599 18.3201 6.8999 18.3201 6.8499 18.3201C6.4499 18.7501 6.1399 19.0801 6.1099 19.1101C3.6499 21.3301 2.6699 23.9601 2.4599 25.8801M0.569902 18.5701C0.859902 18.6701 1.4999 18.8201 2.3399 18.8201C2.8899 18.8201 3.5299 18.7601 4.2199 18.5801C4.6899 18.4601 5.6599 18.1301 6.1399 17.9601C6.3199 17.2401 6.7399 16.5501 7.3199 15.9801C5.4299 16.7101 2.4999 17.8301 1.1599 18.3501C2.4999 17.7201 5.4099 16.5101 7.2999 15.7301C7.1899 15.7301 7.0799 15.7401 6.9699 15.7401C6.3499 15.7401 5.7399 15.6001 5.2799 15.4301C4.6099 15.6801 3.9099 15.9501 3.5299 16.1401C1.8599 16.9801 0.879902 17.8201 0.569902 18.5701ZM4.0299 18.8601C3.1499 19.5001 1.5999 20.5201 0.659902 20.5601C1.0499 20.8801 1.5299 21.0601 2.1199 21.0601C2.7999 21.0601 3.6399 20.8201 4.6499 20.3101C5.0399 19.8301 5.4799 19.3701 5.9499 18.9401C5.9899 18.9001 6.2299 18.6401 6.5499 18.3001C6.4699 18.2901 6.3999 18.2801 6.3199 18.2701L6.0899 18.2301C5.5799 18.4101 4.7199 18.7001 4.2699 18.8101C4.1899 18.8301 4.0999 18.8501 4.0199 18.8701M12.3599 6.7501C11.0999 5.6801 8.5299 3.8401 5.6499 3.6001C5.8799 4.3901 6.6099 5.4201 7.2099 5.8901C7.5799 6.1801 9.0199 7.3601 10.0299 8.1701C9.9799 7.8601 9.9599 7.5401 9.9999 7.2401V7.1201C8.7199 5.9201 7.5699 5.0601 6.5299 4.2101C7.5099 4.8701 8.7299 5.6301 10.2599 7.0201L10.3099 7.0401C11.6699 7.6201 12.7099 8.5101 13.2999 9.6201C13.7899 10.5401 13.9399 11.6401 13.7199 12.5401C13.6999 12.6501 13.6499 12.7701 13.5899 12.8701C15.4699 11.4301 14.5399 8.6101 12.3499 6.7401M12.7699 22.0101C12.8799 23.1401 13.2599 23.9201 13.4799 24.2301C13.8699 23.9101 14.6099 22.8001 14.8899 21.2901C14.5899 21.2001 14.3199 21.0301 14.0799 20.7801C13.9799 20.6701 13.8799 20.5501 13.8099 20.4201C13.6899 21.8501 13.5299 23.7101 13.5299 23.7101C13.5299 23.7101 13.5499 21.8301 13.5699 20.3701C13.4599 20.7001 13.3499 21.0001 13.2199 21.2601C13.0799 21.5301 12.9399 21.7801 12.7699 22.0001M5.9599 8.5001C4.6199 7.6301 3.7399 7.0001 3.4099 6.5301C3.1499 7.1101 3.3499 7.6701 4.1199 8.4601C4.4899 8.5301 4.8999 8.6301 5.3499 8.7501C5.8699 8.8901 6.4099 9.0701 6.9099 9.2601C6.5699 8.9901 6.2399 8.7301 5.9599 8.5001ZM5.2799 8.9701C3.9199 8.6101 3.0899 8.5101 2.5399 8.5101C2.2299 8.5101 2.0099 8.5401 1.8399 8.5801C2.4799 9.8601 4.3599 11.0201 5.1699 11.4501L5.2499 11.4101C5.8199 11.1001 6.2899 10.9601 6.8499 10.9601C6.9999 10.9601 7.1499 10.9601 7.3099 10.9901C5.7199 10.3401 3.4699 9.4101 2.5799 8.9701C3.8799 9.4201 6.5699 10.4601 8.3799 11.2001C8.3899 11.2001 8.3999 11.2001 8.4099 11.2001C8.1299 10.8301 7.8799 10.3701 7.7199 9.8501C6.9999 9.5401 6.1099 9.2001 5.2699 8.9801M5.1599 11.7601C3.8099 11.2601 1.8499 10.5101 1.2899 10.1101C1.1499 10.8101 1.7599 11.3701 2.8899 12.0101C3.5199 11.9001 4.2599 11.8101 5.1599 11.7601ZM6.9299 6.1101C6.0999 5.6501 5.1199 5.3201 4.2399 5.3201C4.1799 5.3201 4.1299 5.3201 4.0699 5.3201C4.2599 6.2401 4.6299 6.9301 5.2499 7.5901C5.5299 7.8801 6.5999 8.7401 7.6499 9.5501C7.5699 9.1701 7.5499 8.7601 7.6099 8.3501V8.3101C6.3899 7.2901 5.1399 6.2301 4.8199 5.9301C5.2299 6.2201 6.5299 7.1901 7.8099 8.1501H7.8499C8.8599 8.2101 9.7599 8.8101 10.3199 9.2901C10.2399 9.0701 10.1599 8.8201 10.0999 8.5501C9.7999 8.3001 9.4099 7.9901 8.9199 7.6001C8.4299 7.2001 7.9299 6.7901 7.5599 6.5001C7.3399 6.3701 7.1299 6.2401 6.9299 6.1301M19.0599 16.2701C18.5899 17.8501 16.4399 18.3501 16.4399 18.3501C16.2599 17.5001 15.6799 16.4601 15.8199 15.5601C16.1399 15.5601 16.6399 15.5301 17.0799 15.3101C17.3699 15.1601 17.5899 14.9501 17.7499 14.6901C18.1299 15.5501 18.8599 16.1301 19.0699 16.2801M21.4599 15.3101C21.1499 15.1501 20.9199 14.9301 20.7599 14.6601C20.3799 15.5401 19.6299 16.1301 19.4199 16.2801C19.8899 17.8601 22.0399 18.3601 22.0399 18.3601C22.2199 17.5201 22.7599 16.4901 22.6599 15.6101C22.3699 15.6101 21.8899 15.5501 21.4499 15.3201M20.5699 17.9701C19.8999 17.5601 19.4499 17.0401 19.2399 16.4501C19.0299 17.0401 18.5799 17.5601 17.9099 17.9701C17.8399 18.0201 17.7599 18.0601 17.6899 18.1001C18.1999 19.2001 19.2399 19.9101 19.2399 19.9101C19.2399 19.9101 20.2799 19.1901 20.7899 18.1001C20.7199 18.0601 20.6399 18.0201 20.5699 17.9701ZM17.4799 18.2101C17.0399 18.4201 16.6699 18.5301 16.5399 18.5601C16.5699 18.7201 16.5999 18.8801 16.6499 19.0301C16.8299 19.6101 17.2899 21.2801 17.2899 21.2801C17.2899 21.2801 18.4999 21.1801 19.0599 20.0701C18.8399 19.9101 17.9499 19.2201 17.4799 18.2101ZM20.9999 18.2101C20.5299 19.2201 19.6399 19.9101 19.4199 20.0701C19.9799 21.1901 21.1899 21.2801 21.1899 21.2801C21.1899 21.2801 21.6599 19.6101 21.8299 19.0301C21.8799 18.8801 21.9099 18.7201 21.9399 18.5601C21.8099 18.5301 21.4299 18.4201 20.9999 18.2101ZM20.0399 21.1001C19.7699 20.9201 19.4599 20.6401 19.2399 20.2201C19.0199 20.6401 18.7099 20.9201 18.4399 21.1001C18.2499 21.2201 18.0699 21.3101 17.9099 21.3701C18.2499 22.5401 19.2399 23.6001 19.2399 23.6001C19.2399 23.6001 20.2299 22.5401 20.5699 21.3701C20.3999 21.3101 20.2199 21.2201 20.0399 21.1001ZM20.0199 22.9801C20.0799 24.5101 19.9799 27.1101 19.2399 28.1001C18.4899 27.1001 18.3999 24.5101 18.4599 22.9801C18.7699 23.4301 19.0499 23.7301 19.0699 23.7501L19.1299 23.8101C19.1699 25.0101 19.2199 26.3001 19.2399 26.7001C19.2599 26.2901 19.3099 25.0001 19.3499 23.8101L19.4099 23.7501C19.4099 23.7501 19.7099 23.4201 20.0199 22.9801ZM18.2399 22.7301C18.2399 22.7301 18.2399 22.6701 18.2399 22.6501C18.0199 22.3001 17.8099 21.8801 17.6899 21.4501C17.5799 21.4801 17.4799 21.5001 17.4099 21.5101C17.6699 22.3501 17.9699 24.0701 17.9699 25.4001C17.9699 27.1601 17.7099 28.9701 17.0699 30.1601C17.8599 29.8901 18.3099 29.1201 18.6199 27.3401C18.1099 25.6801 18.2199 23.1101 18.2399 22.7401M20.5099 25.3901C20.5099 24.0701 20.8099 22.3401 21.0699 21.5001C20.9999 21.5001 20.9099 21.4701 20.7899 21.4401C20.6699 21.8801 20.4599 22.2901 20.2399 22.6401C20.2399 22.6701 20.2399 22.7001 20.2399 22.7301C20.2599 23.0901 20.3699 25.6701 19.8599 27.3301C20.1599 29.1101 20.6099 29.8701 21.4099 30.1501C20.7699 28.9701 20.5099 27.1601 20.5099 25.3901ZM19.7099 27.7501C19.6299 27.9401 19.5399 28.1101 19.4299 28.2501L19.3799 28.3101C19.3199 29.9501 19.2399 32.2201 19.2399 32.2201C19.2399 32.2201 19.1599 29.9501 19.0999 28.3101L19.0499 28.2501C18.9399 28.1101 18.8499 27.9401 18.7699 27.7501C18.6799 28.2001 18.5799 28.5801 18.4599 28.8901C18.4599 28.9701 18.4599 29.0401 18.4699 29.1001C18.5099 30.4201 18.6499 32.0801 19.2299 32.8401C19.8199 32.0801 19.9499 30.4101 19.9899 29.1001C19.9899 29.0401 19.9899 28.9601 19.9999 28.8901C19.8799 28.5801 19.7799 28.2001 19.6899 27.7501M16.7199 32.8501C16.4899 32.8501 16.0699 32.7401 15.9999 32.4301C16.1899 32.6501 16.5399 32.7101 16.7199 32.7101C17.5299 32.7101 18.1999 31.6201 18.3799 30.9001C18.3099 30.3901 18.2799 29.8801 18.2599 29.3801C18.2099 29.4801 18.1499 29.5701 18.0899 29.6601C18.0899 29.6701 18.0899 29.6901 18.0899 29.7001C17.9199 31.0201 17.3299 32.2601 16.4999 32.2601C16.2999 32.2601 16.0799 32.1901 15.8599 32.0301C15.5699 32.9001 16.1499 33.3401 16.7299 33.3401C17.8699 33.3401 18.5199 32.3401 18.6199 32.0301C18.5599 31.8201 18.4999 31.5801 18.4599 31.3401C18.3099 31.7501 17.7599 32.8401 16.7299 32.8401M22.6399 32.0301C22.4099 32.1901 22.1999 32.2601 21.9999 32.2601C21.1599 32.2601 20.5799 31.0101 20.4099 29.7001C20.4099 29.6801 20.4099 29.6701 20.4099 29.6601C20.3499 29.5701 20.2899 29.4801 20.2399 29.3801C20.2199 29.8801 20.1799 30.4001 20.1199 30.9001C20.2999 31.6201 20.9699 32.7101 21.7799 32.7101C21.9499 32.7101 22.3099 32.6601 22.4999 32.4301C22.4299 32.7401 22.0099 32.8501 21.7799 32.8501C20.7499 32.8501 20.1999 31.7601 20.0499 31.3501C20.0099 31.5901 19.9499 31.8201 19.8899 32.0401C19.9899 32.3501 20.6399 33.3501 21.7799 33.3501C22.3599 33.3501 22.9399 32.9001 22.6599 32.0401M19.4299 32.9901L19.3499 33.0901C19.3199 34.3601 19.2599 36.3201 19.2399 36.9601C19.2199 36.3201 19.1699 34.3501 19.1299 33.0901L19.0499 32.9901C18.9299 32.8301 18.8199 32.6401 18.7399 32.4201C18.1599 34.5501 18.6799 36.9301 19.2399 37.9501C19.7999 36.9301 20.3199 34.5501 19.7399 32.4201C19.6499 32.6401 19.5499 32.8301 19.4299 32.9901ZM18.2599 34.1501C17.4799 35.2301 16.3599 35.8901 15.3499 35.8901C14.9499 35.8901 14.5999 35.7701 14.4399 35.5401C14.2599 35.2901 14.2499 34.9201 14.3999 34.4501C14.3399 34.8701 14.3999 35.2001 14.5799 35.4101C14.7399 35.6001 15.0199 35.7001 15.3399 35.7001C15.7999 35.7001 16.3499 35.4901 16.8999 35.1401C17.4599 34.7801 17.9899 34.2001 18.2899 33.6801C18.3199 33.3701 18.3599 33.0701 18.4199 32.7601C18.3199 32.8801 18.1999 32.9901 18.0599 33.1001C17.5299 34.0101 16.3099 34.9701 15.3399 34.9701C14.6199 34.9701 14.6599 34.1601 14.7199 33.8501C14.3099 33.8901 13.6599 34.4501 13.6599 35.1101C13.6599 35.8401 14.0499 36.5901 15.3399 36.5901C16.1199 36.5901 17.0099 36.1101 17.3399 35.8501C17.5599 35.6801 17.9499 35.2301 18.2599 34.8501C18.2499 34.6201 18.2499 34.3801 18.2599 34.1401M23.7599 33.8601C23.8199 34.1701 23.8599 34.9801 23.1399 34.9801C22.1699 34.9801 20.9599 34.0201 20.4199 33.1101C20.2799 33.0001 20.1599 32.8801 20.0599 32.7701C20.1299 33.0701 20.1699 33.3801 20.1899 33.6901C20.4799 34.2001 21.0099 34.7801 21.5799 35.1501C22.1299 35.5001 22.6799 35.7101 23.1399 35.7101C23.4599 35.7101 23.7399 35.6101 23.8999 35.4201C24.0799 35.2101 24.1399 34.8801 24.0799 34.4601C24.2399 34.9301 24.2199 35.3001 24.0399 35.5501C23.8799 35.7801 23.5299 35.9001 23.1299 35.9001C22.1199 35.9001 20.9899 35.2501 20.2199 34.1601C20.2199 34.4001 20.2199 34.6401 20.2199 34.8701C20.5299 35.2601 20.9199 35.7001 21.1399 35.8701C21.4699 36.1301 22.3599 36.6101 23.1399 36.6101C24.4299 36.6101 24.8199 35.8601 24.8199 35.1301C24.8199 34.4701 24.1699 33.9101 23.7599 33.8701M19.4499 38.0701L19.3299 38.2901C19.2999 39.0601 19.2699 39.8701 19.2499 40.4601C19.2299 39.8801 19.1999 39.0601 19.1699 38.2901L19.0499 38.0701C18.8799 37.7601 18.7099 37.3201 18.5799 36.8201C18.4299 38.5601 18.5799 40.1001 19.2599 41.4101C19.9299 40.1001 20.0899 38.5601 19.9399 36.8201C19.7999 37.3301 19.6399 37.7601 19.4699 38.0701M18.3599 36.5101C17.6899 37.7801 16.4899 38.6601 15.3499 38.6601C14.3299 38.6601 13.7599 37.9301 14.0799 37.2501C13.8999 38.0401 14.6199 38.4301 15.3499 38.4301C16.9299 38.4301 18.0399 36.6001 18.3899 35.9701C18.3499 35.7201 18.3199 35.4701 18.2999 35.2001C17.9099 35.8001 16.5399 37.7801 15.3599 37.7801C14.6299 37.7801 14.2199 36.9601 14.2599 36.6301C13.6899 36.9101 13.4399 37.3701 13.4399 37.8601C13.4399 38.8801 14.4699 39.5201 15.3599 39.5201C16.9299 39.5201 17.7699 38.6001 18.2999 37.8001C18.2999 37.3901 18.3299 36.9501 18.3799 36.5001M24.2299 36.6401C24.2699 36.9601 23.8699 37.7901 23.1299 37.7901C21.9399 37.7901 20.5799 35.8101 20.1899 35.2101C20.1699 35.4701 20.1399 35.7301 20.0999 35.9801C20.4499 36.6001 21.5599 38.4401 23.1399 38.4401C23.8699 38.4401 24.5799 38.0501 24.4099 37.2601C24.7399 37.9401 24.1699 38.6701 23.1399 38.6701C21.9999 38.6701 20.7899 37.7801 20.1299 36.5201C20.1699 36.9701 20.1999 37.4101 20.2099 37.8201C20.7399 38.6101 21.5799 39.5401 23.1399 39.5401C24.0399 39.5401 25.0599 38.9001 25.0599 37.8801C25.0599 37.3901 24.8099 36.9201 24.2299 36.6501M25.9999 29.1901C25.3499 29.1901 24.6599 29.0301 23.9699 28.7301C23.9999 29.9901 23.6299 31.0001 22.6599 31.2501C22.6599 31.2501 22.7399 30.6701 22.6799 30.4101C23.1399 30.0301 23.5599 29.1801 23.0699 27.9501C23.2699 29.2801 22.9199 30.0801 22.3399 30.3401C22.2399 29.2801 22.0099 27.8401 20.7799 26.3801C20.7599 26.0601 20.7499 25.7301 20.7499 25.3901C20.7499 24.0401 21.0599 22.3301 21.3099 21.5501C21.4299 21.5401 21.5499 21.5301 21.6499 21.5301C22.9199 21.5301 23.1999 22.2601 23.4199 22.8901C23.8499 24.1401 24.9899 25.3601 25.4099 25.6401C25.2599 25.6701 25.1099 25.6901 24.9599 25.6901C24.2199 25.6901 23.4299 25.3101 23.0899 24.6501C22.2699 24.6301 21.8299 24.3501 21.2999 23.8301C21.7399 24.5901 22.3199 24.8201 22.9799 24.8901C23.3199 25.5201 24.0899 25.9201 24.9399 25.9201C25.0599 25.9201 25.1699 25.9201 25.2899 25.9001C25.5299 26.3201 25.9499 26.6701 26.1799 26.8601C25.9899 26.9101 25.7499 26.9501 25.4899 26.9501C24.8099 26.9501 23.9499 26.7101 23.2999 25.8601H23.2899C22.3899 25.8601 21.7399 25.3301 21.2999 24.9801C21.6799 25.5501 22.3799 26.1201 23.2599 26.1501C23.7099 26.7801 24.5399 27.1801 25.4299 27.1801C25.5799 27.1801 25.7299 27.1801 25.8899 27.1501C26.1999 27.4801 26.6899 27.7801 26.8799 27.8801C26.6399 28.0001 26.2299 28.0801 25.7599 28.0801C24.8799 28.0801 23.8199 27.7901 23.3999 26.9101C23.3499 26.9101 23.2999 26.9101 23.2499 26.9101C22.3599 26.9101 21.7899 26.4401 21.3099 26.0701C21.7499 26.7501 22.4399 27.2001 23.2699 27.2001H23.2899C23.7699 28.0101 24.8199 28.3201 25.7199 28.3201C26.0499 28.3201 26.3699 28.2801 26.6299 28.2001C26.9599 28.5101 27.1399 28.7001 27.4399 28.8801C27.0199 29.0901 26.5399 29.1901 26.0199 29.1901M24.3899 29.1501C24.6499 29.5701 24.9599 30.0801 25.0399 30.2101C24.9399 30.1001 24.5299 29.6501 24.1899 29.2701C24.1699 29.5401 24.1299 29.7801 24.0699 30.0101C24.3999 30.3601 24.7899 30.4701 25.1999 30.5101C25.3699 30.1801 25.3099 29.6801 25.2399 29.3601C24.9599 29.3101 24.6799 29.2401 24.3899 29.1501ZM24.9399 19.6101C25.1499 19.7101 25.3699 19.7701 25.5999 19.7701C25.6999 19.7701 25.7999 19.7601 25.8899 19.7401C26.1599 20.7201 26.5699 22.1201 26.5699 22.1201C26.5699 22.1201 26.3199 20.6901 26.1399 19.6701C26.4899 19.5301 26.7699 19.2501 26.9299 18.8901C27.2999 20.3901 27.3399 21.7001 26.6799 22.6201C25.7599 22.0301 25.2699 20.9901 24.9399 19.6301M29.6999 21.2101C30.0499 19.8801 29.6599 18.7001 28.9099 17.6601C28.8699 17.8901 28.7699 18.1101 28.6199 18.3001C28.5499 18.3901 28.4699 18.4701 28.3899 18.5401L29.4599 20.7801C29.4599 20.7801 28.6799 19.5301 28.1699 18.6901C27.9599 18.8101 27.7099 18.8801 27.4599 18.8801C27.3699 18.8801 27.2699 18.8801 27.1799 18.8501C27.7899 20.0501 28.6999 20.9401 29.6899 21.2201M30.7299 13.4001C31.7399 13.1401 32.7199 12.5301 33.1099 11.6101C32.5899 11.3201 32.1499 11.1901 31.6299 11.1901C31.1999 11.1901 30.7199 11.2801 30.0799 11.4301C30.2599 11.7401 30.2999 12.1001 30.2199 12.4501C31.1199 12.1901 32.4199 11.8101 32.4199 11.8101C32.4199 11.8101 31.0999 12.3801 30.1299 12.7301C30.3999 12.9001 30.5999 13.1301 30.7199 13.4001M32.1199 18.0301C31.9099 17.1501 31.2699 16.2201 30.2799 15.5601C30.3499 15.8901 30.3099 16.2401 30.1499 16.5401C30.1399 16.5601 30.1299 16.5701 30.1199 16.5901C30.7799 17.0801 31.7199 17.7801 31.7199 17.7801C31.7199 17.7801 30.7099 17.1801 29.9899 16.7801C29.7399 17.0901 29.3599 17.2801 28.9299 17.3101C29.5199 17.6901 30.4299 18.0901 31.4599 18.0901C31.6699 18.0901 31.8899 18.0701 32.1099 18.0401M35.5199 16.1701C37.1399 15.9601 37.7199 15.4301 37.8499 14.8301C37.4899 15.0001 36.4099 15.0901 35.1199 15.0901C34.7099 15.0901 34.2799 15.0801 33.8399 15.0701L33.8099 15.1001C33.7399 15.1601 33.6299 15.2301 33.5099 15.3001C34.2299 15.5701 34.7599 15.7801 35.0599 15.9401C35.2199 16.0201 35.3699 16.1001 35.5199 16.1801M33.6499 14.9201C33.2299 14.3801 32.2299 13.6001 31.0999 13.6001C30.9999 13.6001 30.8999 13.6001 30.7999 13.6201C30.8399 13.7601 30.8599 13.9101 30.8499 14.0601C30.8499 14.1601 30.8299 14.2601 30.7999 14.3601C31.7399 14.5601 33.0299 14.8501 33.0299 14.8501C33.0299 14.8501 31.6199 14.6801 30.7299 14.5701C30.6099 14.8501 30.4099 15.0801 30.1599 15.2301C30.5799 15.4301 31.0499 15.5001 31.4999 15.5001C32.4599 15.5001 33.3599 15.1701 33.6399 14.9101M26.0799 14.1601C26.0799 14.1601 26.1399 14.1601 26.1799 14.1601C26.2699 14.1601 26.3799 14.1601 26.4899 14.1601C26.8799 14.1601 27.3399 14.1101 27.6299 13.6301C27.8899 13.8901 28.1599 13.9701 28.4299 13.9701C28.7399 13.9701 29.0299 13.8701 29.2599 13.8301C29.0199 13.4601 28.7999 12.7801 28.0199 12.7501C28.2299 12.0001 27.6599 11.5801 27.3799 11.2401C27.1699 11.6301 26.6899 12.1601 27.0599 12.8501C26.2999 13.0401 26.2299 13.7501 26.0699 14.1601M27.4099 9.5501C27.5299 9.5501 27.6499 9.5701 27.7599 9.5901C28.0199 9.0501 28.3399 8.1101 28.2499 7.2701C25.8699 8.2701 24.9099 10.0801 24.8799 11.5901C25.0699 11.2101 25.4199 10.8801 25.9499 10.8001C25.9699 10.6301 26.0299 10.4701 26.0999 10.3201C26.3799 9.6501 26.7399 9.1601 27.7699 7.9601C27.2099 8.7501 26.9099 9.2301 26.6899 9.7301C26.9099 9.6101 27.1599 9.5501 27.3999 9.5501M22.8999 15.6001C22.9399 16.0501 22.8399 16.5201 22.7099 16.9701C24.5999 16.9301 26.0599 16.4501 26.7399 15.6201C27.0399 15.2501 27.1899 14.8101 27.1799 14.3001C26.9099 14.4001 26.6399 14.4001 26.4899 14.4001C26.4299 14.4001 25.7399 14.4101 25.7399 14.4101C25.7399 14.4101 25.9099 13.9501 25.9299 13.8701C25.9499 13.8201 25.9599 13.7601 25.9799 13.7001C25.6399 13.6601 25.4099 13.4801 25.4099 13.4801C25.4699 13.9301 25.4099 14.4901 25.1799 14.8301C24.7099 15.5401 23.7499 15.6001 22.8999 15.6001ZM22.6399 17.2101C22.6099 17.3201 22.5699 17.4201 22.5399 17.5301C22.4399 17.8401 22.3399 18.1301 22.2799 18.4001V18.4301C24.9599 18.3201 28.3199 16.9301 27.9699 14.1301C27.8699 14.0901 27.7699 14.0401 27.6699 13.9701C27.5899 14.0601 27.4999 14.1301 27.4099 14.1901C27.5299 16.3701 25.0799 17.1801 22.6399 17.2101ZM33.1799 11.9801C32.9199 12.4301 32.5099 12.8201 31.9799 13.1301C31.8999 13.1801 31.8099 13.2201 31.7299 13.2601C33.8499 13.2001 36.1299 13.1601 37.2599 13.1201C36.3399 13.2001 33.6699 13.3601 31.8699 13.4701C32.1699 13.5501 32.4599 13.6801 32.7499 13.8501C33.1699 14.1001 33.5499 14.4301 33.8199 14.7601C36.3799 14.3801 37.1599 13.7801 38.0799 13.0501C37.1799 12.5801 35.8999 12.1001 33.1799 11.9701M22.9999 19.8101C23.2299 19.9401 23.4599 20.0101 23.6799 20.0101C24.1899 20.0101 24.6299 19.7001 24.7999 19.2601C25.0399 19.4601 25.3199 19.5501 25.5999 19.5501C26.1699 19.5501 26.7099 19.1501 26.8199 18.4601C27.0299 18.5901 27.2499 18.6501 27.4599 18.6501C28.1999 18.6501 28.8699 17.9301 28.6599 17.0901C28.7099 17.0901 28.7499 17.0901 28.7999 17.0901C29.9099 17.0901 30.4199 15.9701 29.8499 15.1501C30.8199 14.8201 30.9599 13.3301 29.8299 12.8401C30.3899 11.9001 29.7299 10.9201 28.7699 10.9201C28.7299 10.9201 28.6799 10.9201 28.6399 10.9201C28.5599 10.1601 27.9399 9.7901 27.4199 9.7901C26.7999 9.7901 26.1799 10.2801 26.1799 11.0301C25.3199 11.0301 24.9599 11.8001 24.9599 12.2601C24.9599 12.7601 25.3699 13.3601 26.0799 13.4801C26.1999 13.1901 26.3899 12.8901 26.7699 12.7201C26.5899 12.1401 26.8799 11.6701 27.0799 11.3401C27.1199 11.2701 27.3599 10.8301 27.3599 10.8301C27.3599 10.8301 27.6799 11.2101 27.7399 11.2701C27.9999 11.5501 28.3799 11.9601 28.3299 12.5601C28.9199 12.6901 29.1899 13.1801 29.3799 13.5201C29.4199 13.5901 29.6799 14.0101 29.6799 14.0101C29.6799 14.0101 29.1899 14.1001 29.1199 14.1101C28.9299 14.1601 28.6999 14.2101 28.4699 14.2101C28.3899 14.2101 28.3199 14.2101 28.2499 14.2001C28.3399 15.0301 28.1099 15.7901 27.5999 16.4601C26.4599 17.9301 24.1199 18.6201 22.2099 18.6701C22.1799 18.8501 22.1399 19.0101 22.0999 19.1201C22.0199 19.3801 21.8899 19.8401 21.7599 20.2901C21.8399 20.3101 21.9199 20.3201 22.0099 20.3201C22.3999 20.3201 22.8499 20.1501 23.0399 19.8401M29.8299 11.1101C30.3899 10.4001 30.7799 9.3801 30.6399 8.3801C29.6299 8.4401 28.6699 9.1101 28.0399 9.7001C28.3599 9.8601 28.6499 10.1401 28.7899 10.5301L30.1699 8.9201C29.9999 9.1501 29.3999 10.0401 28.9499 10.7001C29.2899 10.7401 29.5999 10.8901 29.8299 11.1201M24.6599 19.8601C24.3999 20.1001 24.0499 20.2401 23.6799 20.2401C23.4699 20.2401 23.2599 20.2001 23.0599 20.1101C22.7799 20.4001 22.3299 20.5301 21.9699 20.5301C21.8899 20.5301 21.8099 20.5301 21.7299 20.5101C22.0099 20.8601 22.4499 21.1301 23.1099 21.1301C23.8599 21.1301 24.4799 20.5301 24.6599 19.8601ZM26.7499 23.4201C26.6999 23.2201 26.6599 23.0301 26.6099 22.8401L26.5499 22.8001C26.3199 22.6501 26.0999 22.4701 25.9099 22.2601C25.8499 22.7401 25.7399 23.1501 25.6199 23.4901C26.2599 26.4401 27.1699 27.2501 27.6999 27.4801C27.5999 27.0901 27.4399 26.2901 27.2799 25.4001C27.0599 24.7201 26.8999 24.0401 26.7499 23.4201ZM30.9199 22.6401C30.8199 22.4501 30.6499 22.1101 30.4599 21.7401C30.2999 21.5101 30.1499 21.2601 29.9799 21.0001C29.9599 21.0901 29.9399 21.1801 29.9199 21.2701L29.8599 21.5001L29.6299 21.4401C29.5599 21.4201 29.4899 21.4001 29.4199 21.3701C29.5399 21.7701 29.6599 22.2101 29.7799 22.6701C30.1099 23.6101 30.4399 24.5101 30.5699 24.8001C31.6899 27.2501 32.5599 27.9001 33.6599 27.9001C33.8299 27.9001 33.9999 27.8801 34.1799 27.8601C33.3799 27.4701 32.0799 24.9001 30.9099 22.6401M27.6799 20.0501C28.3599 22.7101 29.4099 26.6901 29.9299 28.6301C29.3499 26.8301 28.1499 22.7301 27.3899 20.1501C27.4099 20.3601 27.4199 20.5601 27.4199 20.7501C27.4199 21.5701 27.2399 22.2201 26.8599 22.7501L26.8299 22.7901C27.3499 24.8901 27.7799 27.4901 30.1599 29.3701C30.8599 27.4401 29.7999 23.5601 29.1399 21.2501C28.6099 21.0001 28.1099 20.5801 27.6699 20.0501M32.3699 19.1101C32.3699 19.1101 32.0299 18.7501 31.6299 18.3201C31.5699 18.3201 31.5199 18.3201 31.4699 18.3201C30.8699 18.3201 30.2599 18.1901 29.6599 17.9401C31.3699 20.0601 34.3499 23.7301 35.4799 25.2001C34.1299 23.6501 31.3799 20.3801 29.4499 18.0601C29.6299 18.3701 29.7699 18.6801 29.8699 19.0001C30.0399 19.5401 30.0999 20.0901 30.0399 20.6401C32.2999 24.3101 33.7899 25.2501 36.0299 25.8701C35.8199 23.9601 34.8399 21.3301 32.3799 19.1001M34.9599 16.1401C34.5799 15.9501 33.8699 15.6701 33.1999 15.4301C32.7399 15.6101 32.1299 15.7401 31.5099 15.7401C31.3999 15.7401 31.2799 15.7401 31.1799 15.7301C33.0699 16.5101 35.9799 17.7201 37.3299 18.3501C35.9899 17.8301 33.0599 16.7101 31.1699 15.9801C31.7499 16.5501 32.1699 17.2401 32.3499 17.9601C32.8299 18.1301 33.7999 18.4601 34.2699 18.5801C34.9699 18.7601 35.5999 18.8201 36.1499 18.8201C36.9899 18.8201 37.6199 18.6701 37.9199 18.5701C37.6199 17.8301 36.6299 16.9801 34.9599 16.1401ZM34.2099 18.8101C33.7599 18.6901 32.8999 18.4001 32.3899 18.2301L32.1599 18.2701C32.0799 18.2801 32.0099 18.2901 31.9299 18.3001C32.2499 18.6401 32.4899 18.9001 32.5299 18.9401C33.0099 19.3701 33.4399 19.8301 33.8399 20.3101C34.8599 20.8301 35.6899 21.0601 36.3699 21.0601C36.9599 21.0601 37.4399 20.8801 37.8299 20.5601C36.8999 20.5201 35.3499 19.5001 34.4599 18.8601C34.3799 18.8401 34.2999 18.8201 34.2199 18.8001M24.8799 12.8901C24.8299 12.7901 24.7799 12.6601 24.7499 12.5601C24.5299 11.6601 24.6799 10.5601 25.1699 9.6401C25.7599 8.5301 26.7899 7.6401 28.1599 7.0601L28.2099 7.0401C29.7499 5.6501 30.9699 4.8901 31.9399 4.2301C30.8999 5.0701 29.7499 5.9401 28.4599 7.1401V7.2601C28.5099 7.5701 28.4899 7.8901 28.4399 8.1901C29.4499 7.3701 30.8899 6.1901 31.2599 5.9101C31.8599 5.4401 32.5899 4.4101 32.8199 3.6201C29.9399 3.8601 27.3699 5.6901 26.1099 6.7701C23.9199 8.6401 22.9899 11.4601 24.8699 12.9001M25.2599 21.2801C25.1299 21.0201 25.0099 20.7201 24.9099 20.3901C24.9399 21.8501 24.9499 23.7301 24.9499 23.7301C24.9499 23.7301 24.7899 21.8701 24.6699 20.4401C24.5899 20.5701 24.4999 20.6901 24.3999 20.8001C24.1699 21.0501 23.8899 21.2201 23.5899 21.3101C23.8699 22.8301 24.6099 23.9401 24.9999 24.2501C25.2199 23.9401 25.5999 23.1601 25.7099 22.0301C25.5399 21.8101 25.3899 21.5701 25.2599 21.2901M31.5799 9.2601C32.0799 9.0701 32.6199 8.8801 33.1399 8.7501C33.5899 8.6301 33.9999 8.5401 34.3699 8.4601C35.1399 7.6701 35.3399 7.1101 35.0699 6.5301C34.7499 7.0001 33.8599 7.6301 32.5199 8.5001C32.2399 8.7301 31.9099 8.9901 31.5799 9.2601ZM30.7499 9.8501C30.5899 10.3701 30.3399 10.8301 30.0599 11.2001C30.0699 11.2001 30.0799 11.2001 30.0899 11.2001C31.8899 10.4701 34.5899 9.4201 35.8899 8.9701C34.9999 9.4101 32.7499 10.3401 31.1599 10.9901C31.3199 10.9701 31.4799 10.9601 31.6199 10.9601C32.1699 10.9601 32.6499 11.0901 33.2099 11.4101L33.2899 11.4501C34.0999 11.0301 35.9799 9.8601 36.6199 8.5801C36.4499 8.5401 36.2299 8.5101 35.9199 8.5101C35.3699 8.5101 34.5399 8.6101 33.1799 8.9701C32.3399 9.1901 31.4599 9.5301 30.7299 9.8401M35.5899 12.0001C36.7199 11.3601 37.3299 10.8101 37.1899 10.1001C36.6299 10.5001 34.6699 11.2501 33.3199 11.7501C34.2199 11.8001 34.9699 11.8801 35.5899 12.0001ZM30.9199 6.4801C30.5499 6.7801 30.0499 7.1901 29.5599 7.5801C29.0799 7.9701 28.6899 8.2901 28.3799 8.5301C28.3199 8.8001 28.2399 9.0401 28.1499 9.2701C28.7099 8.7901 29.6099 8.1901 30.6199 8.1401H30.6499C31.9399 7.1701 33.2299 6.2101 33.6399 5.9201C33.3299 6.2201 32.0799 7.2801 30.8499 8.3001V8.3401C30.9199 8.7601 30.8999 9.1601 30.8099 9.5401C31.8599 8.7301 32.9299 7.8701 33.2099 7.5801C33.8399 6.9201 34.1999 6.2301 34.3899 5.3101C34.3299 5.3101 34.2799 5.3101 34.2199 5.3101C33.3499 5.3101 32.3599 5.6501 31.5299 6.1001C31.3299 6.2101 31.1199 6.3401 30.8999 6.4701M16.9799 8.4001C16.7699 8.5101 16.5499 8.6401 16.2399 8.7201C16.1299 8.7501 16.0199 8.7601 15.9199 8.7601C15.4699 8.7601 15.2099 8.4901 15.3099 8.1401C15.3099 8.1401 15.5999 8.2801 15.8999 8.2801C16.0099 8.2801 16.1199 8.2601 16.2199 8.2201C16.6399 8.0201 17.0899 7.7201 17.7299 7.7201C17.7999 7.7201 17.8699 7.7201 17.9399 7.7201C18.2099 7.7501 18.3599 7.8501 18.4399 7.9601C18.2999 7.9401 18.1299 7.9201 17.9699 7.9201C17.8199 7.9201 17.6999 7.9301 17.5899 7.9601C17.2899 8.0301 17.0799 8.1801 16.9799 8.3801M21.9499 12.1501C21.8799 12.1601 21.8199 12.1701 21.7499 12.1701C21.4199 12.1701 21.0999 12.0201 21.0599 11.7701C21.1699 11.8701 21.4299 11.9601 21.6899 11.9601C21.8799 11.9601 22.0799 11.9101 22.2299 11.7801C21.7799 10.4801 22.9099 7.9601 22.1899 6.7801C22.1899 6.7801 22.1699 6.7801 22.1399 6.7801C22.0499 6.7801 21.8299 6.7601 21.6999 6.6001H21.7099C22.4499 6.6001 22.8999 5.9701 22.5399 5.4001C22.3299 5.5301 22.0699 5.6401 21.8199 5.6401C21.7199 5.6401 21.6199 5.6201 21.5299 5.5801C22.3199 5.4301 22.2499 4.8101 21.9099 4.6101C21.6399 4.7701 21.2599 4.8301 20.8399 4.8301C20.0799 4.8301 19.1599 4.6601 18.3199 4.6601C18.1299 4.6601 17.9399 4.6601 17.7599 4.6901C17.3299 4.7401 17.1499 4.9001 17.1499 5.1701C17.1499 5.3901 17.4299 5.5301 17.5999 5.5301C17.8899 5.5301 18.6399 5.2401 19.2399 5.2401C19.7999 5.2401 20.8399 5.4801 21.1599 5.5601C21.0799 5.6001 20.9299 5.6801 20.7099 5.6801C20.6399 5.6801 20.5599 5.6801 20.4699 5.6501C20.3499 5.6301 20.2399 5.6101 20.1299 5.5901C20.0899 6.2101 19.5799 6.6901 18.9499 6.6901C18.3799 6.6901 17.8999 6.2801 17.7899 5.7401C17.7099 5.7501 17.6399 5.7601 17.5899 5.7601C17.5599 5.7601 17.5299 5.7601 17.5099 5.7601C17.5499 6.0701 17.6499 6.3101 17.7699 6.4401C17.9699 6.6401 18.2599 6.7801 18.5399 6.9101C19.0599 7.1501 19.6599 7.4301 19.6599 8.1701C19.6599 8.7101 19.3799 9.0001 18.8699 9.0001C18.7599 9.0001 18.6399 8.9901 18.5299 8.9701C19.1899 9.9201 17.8599 11.3301 17.0799 11.7801C17.2499 12.0401 17.5499 12.1401 17.8799 12.1401C18.2699 12.1401 18.6999 11.9901 18.9999 11.7701C18.8899 12.1101 18.4099 12.3801 17.8899 12.3801C17.6799 12.3801 17.4699 12.3401 17.2799 12.2401C16.0099 13.4501 16.0899 14.5401 15.5399 15.3201H15.6499C16.3399 15.3201 17.7199 15.2801 17.7199 13.6301C17.7199 15.1101 19.2199 16.1101 19.2199 16.1101C19.2199 16.1101 20.7199 15.1101 20.7199 13.6301C20.7199 15.2301 22.2499 15.3501 22.7199 15.3501C22.8099 15.3501 22.8599 15.3501 22.8599 15.3501C22.3599 14.2501 21.9899 12.8901 21.9299 12.1501M18.0399 5.7001C18.1299 6.1301 18.5099 6.4601 18.9699 6.4601C19.4799 6.4601 19.8999 6.0601 19.9199 5.5501C19.8099 5.5301 19.7099 5.5201 19.6199 5.5101C19.6099 5.8501 19.3199 6.1301 18.9699 6.1301C18.6599 6.1301 18.3999 5.9101 18.3399 5.6301C18.2999 5.6401 18.2599 5.6501 18.2199 5.6601C18.1599 5.6801 18.0999 5.6901 18.0499 5.7001M18.9599 5.7001C19.0799 5.7001 19.1799 5.6001 19.1799 5.4801C19.0399 5.4801 18.8899 5.5001 18.7399 5.5301C18.7599 5.6301 18.8499 5.7001 18.9499 5.7001" fill="white"/>
<path d="M4.65022 33.2301C4.65022 33.2301 4.70022 33.2301 4.73022 33.2601C4.83022 33.5101 5.01022 33.6901 5.39022 33.7001C5.08022 33.6001 4.95022 33.4501 4.95022 33.2101C4.95022 32.7901 5.26022 32.3801 5.77022 32.3801C6.33022 32.3801 6.58022 32.9001 6.58022 33.0701C6.63022 33.0701 6.68022 33.0701 6.73022 33.0701C7.13022 33.0701 7.56022 33.1401 7.87022 33.2401C7.94022 33.2601 8.56022 33.5001 8.99022 33.5001C9.11022 33.5001 9.22022 33.4801 9.30022 33.4301C9.39022 33.3801 9.47022 33.3001 9.50022 33.2601C9.61022 33.2901 9.72022 33.3101 9.83022 33.3101C10.0802 33.3101 10.3302 33.2201 10.5702 33.0201C10.3802 33.0801 10.1502 33.1301 9.94022 33.1301C9.74022 33.1301 9.56022 33.0901 9.43022 33.0001C9.67022 32.8701 10.0202 32.5801 10.2602 32.3401C10.3902 32.3701 10.5102 32.3801 10.6302 32.3801C10.9102 32.3801 11.1402 32.3001 11.3002 32.1001C11.1702 32.1501 10.9402 32.2101 10.7002 32.2101C10.5402 32.2101 10.3902 32.1801 10.2602 32.1101C10.4802 31.9401 10.8402 31.6701 11.0702 31.3801C11.1902 31.4001 11.3202 31.4201 11.4502 31.4201C11.6702 31.4201 11.9002 31.3701 12.0702 31.1901C11.9202 31.2301 11.7202 31.2701 11.5202 31.2701C11.3602 31.2701 11.2002 31.2401 11.0602 31.1601C11.2402 31.0101 11.6902 30.6301 11.8302 30.4601C11.9102 30.4801 12.0002 30.4801 12.0802 30.4801C12.3102 30.4801 12.5502 30.4201 12.7402 30.2401C12.5602 30.2901 12.3902 30.3201 12.2202 30.3201C12.0602 30.3201 11.9202 30.2901 11.7902 30.2201C12.0002 30.0401 12.3002 29.7301 12.6302 29.4001C12.7502 29.4001 12.8802 29.3901 13.0102 29.3701C12.9402 29.7401 12.8902 30.2801 13.1302 30.6801C12.1302 31.7201 11.0702 32.8301 10.6402 33.3301C10.5002 33.4901 10.4302 33.8201 10.4702 34.0001C10.5302 34.2001 10.6902 34.3901 10.9302 34.4801C10.9902 34.5001 11.0602 34.5101 11.1102 34.5101C11.4202 34.5101 11.6502 34.2601 11.9902 34.2601C12.0002 34.2601 12.0202 34.2601 12.0302 34.2601C12.8502 34.3101 12.9702 35.1701 12.7602 35.4401C12.5802 35.6801 12.3002 35.8201 11.9802 35.8201C12.0602 35.8501 12.1502 35.8601 12.2302 35.8601C12.4402 35.8601 12.6302 35.7801 12.6802 35.7401C12.7802 35.7601 12.8402 36.0201 12.5902 36.0801C12.4502 36.1101 12.3202 36.1201 12.1902 36.1201C11.9202 36.1201 11.6902 36.0601 11.5502 35.9901C11.2902 35.8601 11.1202 35.6201 11.0802 35.2801C11.0302 35.2801 10.8502 35.3101 10.6202 35.3101C10.3502 35.3101 10.0402 35.2901 9.71022 35.2101C9.73022 35.0801 9.76022 34.9401 9.84022 34.7801C9.45022 35.0901 9.41022 35.8501 8.59022 36.6101C8.73022 36.9401 8.80022 37.4501 8.40022 37.8001C8.13022 38.0401 7.81022 38.0801 7.59022 38.0801C7.50022 38.0801 7.43022 38.0801 7.38022 38.0701C7.11022 38.0301 7.14022 37.7901 7.22022 37.7801C7.32022 37.8001 7.45022 37.8201 7.58022 37.8201C7.74022 37.8201 7.89022 37.7801 7.98022 37.6501C7.91022 37.6601 7.81022 37.6801 7.69022 37.6801C7.50022 37.6801 7.29022 37.6301 7.11022 37.4301C6.79022 37.0701 6.96022 36.1401 7.77022 36.1401C7.83022 36.1401 7.90022 36.1401 7.97022 36.1601C8.43022 35.4101 8.48022 35.0301 9.26022 34.2401C9.08022 34.3201 8.76022 34.5201 8.58022 34.7301C8.41022 34.8201 8.21022 34.9801 8.07022 35.1101C7.54022 35.5801 7.19022 35.7101 6.64022 35.7401C6.64022 36.0801 6.38022 36.4501 6.02022 36.5601C5.90022 36.6001 5.78022 36.6201 5.67022 36.6201C5.47022 36.6201 5.26022 36.5701 5.11022 36.5001C4.83022 36.3701 4.88022 36.1401 5.01022 36.1301C5.15022 36.2401 5.35022 36.3201 5.55022 36.3201C5.67022 36.3201 5.79022 36.2901 5.89022 36.2201C5.83022 36.2201 5.78022 36.2301 5.72022 36.2301C5.39022 36.2301 5.08022 36.1001 5.00022 35.8701C4.89022 35.5001 5.05022 35.1201 5.35022 34.9301C5.47022 34.8501 5.63022 34.8101 5.79022 34.8101C6.00022 34.8101 6.24022 34.9001 6.42022 35.1201C6.74022 34.8601 6.95022 34.8601 7.28022 34.7201C7.67022 34.5501 8.16022 34.2801 8.43022 34.0901C8.07022 34.1601 7.95022 34.2101 7.72022 34.2901C7.10022 34.2501 6.90022 34.0401 6.36022 33.7701C6.22022 33.9401 5.95022 34.1201 5.53022 34.1201C5.43022 34.1201 5.31022 34.1101 5.19022 34.0801C4.85022 34.0101 4.66022 33.7301 4.50022 33.4901C4.42022 33.3701 4.51022 33.2301 4.61022 33.2301M10.6902 33.9501C10.7102 34.0101 10.7402 34.0801 10.8002 34.1401C10.7902 33.9701 10.8302 33.7501 11.0102 33.5501C11.4102 33.1101 13.3502 31.4801 14.5602 30.4501C14.5302 30.3901 14.5102 30.3301 14.4902 30.2701C14.1502 30.5901 13.7602 30.6901 13.4202 30.7301C12.3802 31.8001 11.2502 32.9801 10.8202 33.5001C10.7302 33.6101 10.6702 33.8501 10.7002 33.9601M4.42022 33.6301C4.00022 33.9701 4.12022 34.5101 4.55022 34.8401C4.65022 34.5801 4.80022 34.4201 5.00022 34.2401C4.77022 34.1201 4.51022 33.8801 4.42022 33.6301ZM5.17022 36.7101C5.09022 37.2101 5.49022 37.5301 5.99022 37.5301C6.02022 37.5301 6.05022 37.5301 6.08022 37.5301C5.98022 37.2801 5.98022 37.0501 6.01022 36.7801C5.91022 36.8101 5.79022 36.8201 5.68022 36.8201C5.50022 36.8201 5.32022 36.7901 5.18022 36.7201M8.33022 38.1201C8.16022 38.2101 7.93022 38.2701 7.72022 38.2701C7.64022 38.2701 7.57022 38.2701 7.50022 38.2501C7.53022 38.6701 7.85022 38.8901 8.23022 38.8901C8.34022 38.8901 8.45022 38.8801 8.56022 38.8401C8.41022 38.6101 8.36022 38.4001 8.33022 38.1201ZM11.6102 36.2501C11.6002 36.5201 11.5802 36.7401 11.4402 36.9801C11.5302 37.0001 11.6102 37.0101 11.7002 37.0101C12.1202 37.0101 12.4702 36.7601 12.4602 36.3101C12.3802 36.3201 12.2702 36.3301 12.1602 36.3301C11.9802 36.3301 11.7702 36.3101 11.6102 36.2501ZM16.9602 5.34006H16.7402C15.2202 5.34006 15.4902 6.85006 15.8302 7.20006C15.9802 6.99006 16.2102 6.91006 16.4402 6.91006C16.6702 6.91006 16.9202 7.00006 17.1002 7.14006C17.2202 7.12006 17.3402 7.11006 17.4502 7.11006C18.2402 7.11006 18.8202 7.64006 18.7402 8.26006C18.5902 8.24006 18.2702 8.18006 17.9702 8.18006C17.8602 8.18006 17.7402 8.18006 17.6502 8.21006C16.9902 8.38006 17.1602 8.83006 17.1602 8.83006C17.1602 8.83006 17.5502 8.65006 17.9202 8.65006C17.9602 8.65006 18.0002 8.65006 18.0402 8.65006C18.3102 8.68006 18.6202 8.77006 18.8802 8.77006C19.1902 8.77006 19.4302 8.65006 19.4302 8.17006C19.4302 7.23006 18.2202 7.23006 17.6102 6.61006C17.3802 6.37006 17.2902 5.97006 17.2702 5.68006C17.1302 5.60006 17.0102 5.48006 16.9502 5.34006M33.9502 33.4901C33.7902 33.7301 33.6002 34.0101 33.2602 34.0801C33.1402 34.1001 33.0302 34.1201 32.9202 34.1201C32.5002 34.1201 32.2302 33.9401 32.0902 33.7701C31.5502 34.0401 31.3502 34.2601 30.7302 34.2901C30.5002 34.2101 30.3802 34.1601 30.0202 34.0901C30.2902 34.2801 30.7702 34.5501 31.1702 34.7201C31.4902 34.8601 31.7102 34.8601 32.0302 35.1201C32.2102 34.9001 32.4502 34.8101 32.6702 34.8101C32.8302 34.8101 32.9802 34.8601 33.1002 34.9301C33.4002 35.1201 33.5602 35.5001 33.4502 35.8701C33.3802 36.1001 33.0702 36.2301 32.7302 36.2301C32.6702 36.2301 32.6202 36.2301 32.5602 36.2201C32.6602 36.2901 32.7802 36.3201 32.9002 36.3201C33.1002 36.3201 33.3002 36.2401 33.4402 36.1301C33.5702 36.1301 33.6202 36.3701 33.3402 36.5001C33.1802 36.5701 32.9902 36.6201 32.7802 36.6201C32.6602 36.6201 32.5402 36.6001 32.4302 36.5601C32.0702 36.4401 31.8102 36.0701 31.8102 35.7401C31.2602 35.7001 30.9102 35.5801 30.3802 35.1101C30.2402 34.9801 30.0402 34.8201 29.8702 34.7301C29.7002 34.5201 29.3802 34.3301 29.2002 34.2401C29.9802 35.0301 30.0302 35.4101 30.4902 36.1601C30.5602 36.1501 30.6302 36.1401 30.6902 36.1401C31.5002 36.1401 31.6702 37.0601 31.3502 37.4301C31.1802 37.6301 30.9602 37.6801 30.7702 37.6801C30.6502 37.6801 30.5502 37.6601 30.4802 37.6501C30.5702 37.7801 30.7302 37.8201 30.8802 37.8201C31.0102 37.8201 31.1402 37.7901 31.2402 37.7801C31.3202 37.8001 31.3502 38.0301 31.0802 38.0701C31.0402 38.0701 30.9702 38.0801 30.8702 38.0801C30.6502 38.0801 30.3302 38.0301 30.0602 37.8001C29.6602 37.4601 29.7402 36.9401 29.8702 36.6101C29.0502 35.8601 29.0102 35.0901 28.6202 34.7801C28.7002 34.9501 28.7302 35.0801 28.7502 35.2101C28.4202 35.2901 28.1102 35.3101 27.8402 35.3101C27.6102 35.3101 27.4402 35.2901 27.3802 35.2801C27.3402 35.6301 27.1702 35.8601 26.9102 35.9901C26.7702 36.0601 26.5402 36.1201 26.2702 36.1201C26.1402 36.1201 26.0102 36.1101 25.8702 36.0801C25.6102 36.0201 25.6702 35.7601 25.7702 35.7401C25.8202 35.7801 26.0102 35.8601 26.2302 35.8601C26.3102 35.8601 26.4002 35.8501 26.4802 35.8201C26.1702 35.8201 25.8902 35.6801 25.7102 35.4401C25.5102 35.1701 25.6302 34.3201 26.4402 34.2601C26.4602 34.2601 26.4702 34.2601 26.4802 34.2601C26.8202 34.2601 27.0502 34.5101 27.3602 34.5101C27.4202 34.5101 27.4802 34.5101 27.5402 34.4801C27.7902 34.3901 27.9502 34.2001 28.0002 34.0001C28.0502 33.8201 27.9702 33.5001 27.8302 33.3301C27.4102 32.8301 26.3502 31.7201 25.3402 30.6801C25.5702 30.2801 25.5302 29.7401 25.4602 29.3701C25.5902 29.3901 25.7102 29.4001 25.8402 29.4001C26.1702 29.7301 26.4602 30.0401 26.6802 30.2201C26.5502 30.2901 26.4102 30.3201 26.2502 30.3201C26.0802 30.3201 25.9002 30.2901 25.7302 30.2401C25.9202 30.4201 26.1602 30.4801 26.3902 30.4801C26.4802 30.4801 26.5702 30.4801 26.6502 30.4601C26.7902 30.6401 27.2402 31.0201 27.4202 31.1601C27.2802 31.2401 27.1202 31.2701 26.9602 31.2701C26.7602 31.2701 26.5702 31.2301 26.4202 31.1901C26.6002 31.3701 26.8202 31.4201 27.0502 31.4201C27.1802 31.4201 27.3002 31.4001 27.4202 31.3801C27.6502 31.6801 28.0002 31.9501 28.2302 32.1101C28.1002 32.1801 27.9402 32.2101 27.7902 32.2101C27.5602 32.2101 27.3302 32.1501 27.1902 32.1001C27.3502 32.2901 27.5802 32.3801 27.8602 32.3801C27.9802 32.3801 28.1002 32.3701 28.2302 32.3401C28.4802 32.5801 28.8302 32.8601 29.0602 33.0001C28.9302 33.0901 28.7502 33.1301 28.5502 33.1301C28.3302 33.1301 28.1002 33.0801 27.9202 33.0201C28.1502 33.2201 28.4102 33.3101 28.6502 33.3101C28.7602 33.3101 28.8702 33.2901 28.9902 33.2601C29.0202 33.2901 29.1002 33.3701 29.1902 33.4301C29.2702 33.4801 29.3702 33.5001 29.5002 33.5001C29.9402 33.5001 30.5502 33.2701 30.6202 33.2401C30.9302 33.1401 31.3602 33.0701 31.7602 33.0701C31.8102 33.0701 31.8602 33.0701 31.9102 33.0701C31.9102 32.9001 32.1602 32.3801 32.7202 32.3801C33.2302 32.3801 33.5402 32.7801 33.5402 33.2101C33.5402 33.4501 33.4102 33.5901 33.1002 33.7001C33.4802 33.7001 33.6502 33.5101 33.7602 33.2601C33.7802 33.2401 33.8102 33.2301 33.8402 33.2301C33.9402 33.2301 34.0302 33.3701 33.9502 33.4901ZM27.6702 33.5001C27.2302 32.9901 26.1002 31.8001 25.0602 30.7301C24.7202 30.6901 24.3302 30.5801 23.9902 30.2701C23.9702 30.3301 23.9402 30.3901 23.9102 30.4501C25.1202 31.4801 27.0602 33.1101 27.4602 33.5501C27.6402 33.7601 27.6802 33.9701 27.6702 34.1401C27.7302 34.0801 27.7702 34.0101 27.7802 33.9501C27.8102 33.8501 27.7502 33.6001 27.6602 33.4901M34.0602 33.6301C33.9702 33.8801 33.7102 34.1201 33.4802 34.2401C33.6802 34.4201 33.8302 34.5901 33.9302 34.8401C34.3602 34.5101 34.4802 33.9701 34.0602 33.6301ZM33.3102 36.7101C33.1702 36.7801 32.9902 36.8101 32.8102 36.8101C32.6902 36.8101 32.5702 36.8001 32.4702 36.7701C32.5002 37.0401 32.5002 37.2601 32.4002 37.5201C32.4302 37.5201 32.4602 37.5201 32.4902 37.5201C32.9902 37.5201 33.3902 37.2101 33.3102 36.7001M30.1602 38.1201C30.1302 38.3901 30.0802 38.6101 29.9302 38.8401C30.0402 38.8701 30.1502 38.8901 30.2602 38.8901C30.6502 38.8901 30.9602 38.6701 30.9902 38.2501C30.9202 38.2701 30.8502 38.2701 30.7702 38.2701C30.5602 38.2701 30.3202 38.2101 30.1602 38.1201ZM26.8702 36.2501C26.7102 36.3101 26.5102 36.3301 26.3202 36.3301C26.2102 36.3301 26.1002 36.3301 26.0202 36.3101C26.0202 36.7601 26.3602 37.0101 26.7802 37.0101C26.8602 37.0101 26.9502 37.0101 27.0402 36.9801C26.9102 36.7401 26.8802 36.5201 26.8702 36.2501ZM17.7402 4.47006C17.9202 4.45006 18.1202 4.44006 18.3302 4.44006C18.7702 4.44006 19.2302 4.49006 19.6702 4.53006C20.0902 4.57006 20.4902 4.61006 20.8402 4.61006C20.9602 4.61006 21.0802 4.61006 21.1802 4.59006C21.5902 3.53006 22.4502 2.53006 22.9002 1.70006C22.6002 1.79006 21.9202 1.70006 21.7202 1.98006C21.6302 2.10006 21.7202 2.38006 21.5602 2.38006C21.5702 2.23006 21.4202 2.08006 21.2302 2.08006C21.1202 2.08006 20.9902 2.13006 20.8802 2.26006C20.6402 2.55006 21.2002 3.10006 20.9002 3.66006H20.9402C21.2902 3.66006 21.3302 3.22006 21.3302 2.99006C21.5602 3.55006 21.2002 3.92006 20.6202 3.92006C20.5302 3.92006 20.4302 3.92006 20.3202 3.89006C19.7202 3.77006 19.4502 3.52006 19.4502 2.97006C19.4802 2.80006 19.4602 2.68006 19.6602 2.56006C19.6002 2.69006 19.5902 2.86006 19.5902 3.01006C19.5902 3.26006 19.7202 3.46006 19.9402 3.54006C19.9002 2.81006 20.6502 2.62006 20.5902 2.08006C20.5702 1.88006 20.3202 1.72006 20.0302 1.72006C19.9302 1.72006 19.8202 1.74006 19.7102 1.78006C19.9902 1.28006 19.4002 0.800059 19.2502 0.560059C19.1002 0.800059 18.5102 1.28006 18.7902 1.78006C18.6802 1.74006 18.5702 1.72006 18.4702 1.72006C18.1802 1.72006 17.9302 1.88006 17.9102 2.08006C17.8502 2.62006 18.6002 2.80006 18.5602 3.54006C18.7702 3.46006 18.9102 3.26006 18.9102 3.01006C18.9102 2.86006 18.9002 2.69006 18.8402 2.56006C19.0302 2.68006 19.0202 2.80006 19.0402 2.97006C19.0402 3.51006 18.7702 3.77006 18.1702 3.89006C18.0702 3.91006 17.9702 3.92006 17.8702 3.92006C17.2902 3.92006 16.9202 3.55006 17.1602 2.99006C17.1602 3.22006 17.2002 3.66006 17.5502 3.66006H17.5902C17.2902 3.10006 17.8502 2.55006 17.6002 2.26006C17.4902 2.13006 17.3602 2.08006 17.2502 2.08006C17.0602 2.08006 16.9102 2.22006 16.9202 2.38006C16.7502 2.38006 16.8402 2.11006 16.7502 1.98006C16.5502 1.71006 15.8702 1.80006 15.5702 1.70006C16.0302 2.53006 16.8902 3.53006 17.2902 4.59006C17.4002 4.53006 17.5502 4.49006 17.7302 4.47006" fill="#FFCC03"/>
</g>
<defs>
<clipPath id="clip0_14_2">
<rect width="109" height="42" fill="white"/>
</clipPath>
</defs>
</svg>
